<?xml version="1.0" encoding="UTF-8" standalone="no"?>
<!DOCTYPE svg PUBLIC "-//W3C//DTD SVG 1.1//EN"
 "http://www.w3.org/Graphics/SVG/1.1/DTD/svg11.dtd">
<!-- Generated by graphviz version 2.49.3 (20211023.0002)
 -->
<!-- Title: ast Pages: 1 -->
<svg width="2216pt" height="584pt"
 viewBox="0.00 0.00 2216.00 584.00" xmlns="http://www.w3.org/2000/svg" xmlns:xlink="http://www.w3.org/1999/xlink">
<g id="graph0" class="graph" transform="scale(1 1) rotate(0) translate(4 580)">
<title>ast</title>
<polygon fill="white" stroke="transparent" points="-4,4 -4,-580 2212,-580 2212,4 -4,4"/>
<!-- N0 -->
<g id="node1" class="node">
<title>N0</title>
<polygon fill="none" stroke="black" points="992.5,-576 927.5,-576 927.5,-540 992.5,-540 992.5,-576"/>
<text text-anchor="middle" x="960" y="-554.3" font-family="Times New Roman,serif" font-size="14.00">Program</text>
</g>
<!-- N1 -->
<g id="node2" class="node">
<title>N1</title>
<polygon fill="none" stroke="black" points="1327,-468 1259,-468 1259,-432 1327,-432 1327,-468"/>
<text text-anchor="middle" x="1293" y="-446.3" font-family="Times New Roman,serif" font-size="14.00">Decl_Fct</text>
</g>
<!-- N0&#45;&gt;N1 -->
<g id="edge16" class="edge">
<title>N0&#45;&gt;N1</title>
<path fill="none" stroke="black" d="M992.54,-546.64C1052.75,-527.48 1181.57,-486.47 1249.31,-464.91"/>
<polygon fill="black" stroke="black" points="1250.38,-468.24 1258.84,-461.87 1248.25,-461.57 1250.38,-468.24"/>
</g>
<!-- N16 -->
<g id="node18" class="node">
<title>N16</title>
<polygon fill="none" stroke="black" points="673,-468 605,-468 605,-432 673,-432 673,-468"/>
<text text-anchor="middle" x="639" y="-446.3" font-family="Times New Roman,serif" font-size="14.00">Decl_Fct</text>
</g>
<!-- N0&#45;&gt;N16 -->
<g id="edge35" class="edge">
<title>N0&#45;&gt;N16</title>
<path fill="none" stroke="black" d="M927.45,-546.25C869.39,-527.08 747.92,-486.97 682.67,-465.42"/>
<polygon fill="black" stroke="black" points="683.67,-462.07 673.08,-462.25 681.48,-468.71 683.67,-462.07"/>
</g>
<!-- N34 -->
<g id="node36" class="node">
<title>N34</title>
<polygon fill="none" stroke="black" points="994,-468 926,-468 926,-432 994,-432 994,-468"/>
<text text-anchor="middle" x="960" y="-446.3" font-family="Times New Roman,serif" font-size="14.00">Decl_Fct</text>
</g>
<!-- N0&#45;&gt;N34 -->
<g id="edge49" class="edge">
<title>N0&#45;&gt;N34</title>
<path fill="none" stroke="black" d="M960,-539.97C960,-523.38 960,-497.88 960,-478.43"/>
<polygon fill="black" stroke="black" points="963.5,-478.34 960,-468.34 956.5,-478.34 963.5,-478.34"/>
</g>
<!-- int -->
<g id="node3" class="node">
<title>int</title>
<polygon fill="none" stroke="black" points="792,-360 738,-360 738,-324 792,-324 792,-360"/>
<text text-anchor="middle" x="765" y="-338.3" font-family="Times New Roman,serif" font-size="14.00">int</text>
</g>
<!-- N1&#45;&gt;int -->
<g id="edge12" class="edge">
<title>N1&#45;&gt;int</title>
<path fill="none" stroke="black" d="M1258.98,-443.38C1181.9,-430.46 988.2,-396.89 828,-360 819.51,-358.04 810.43,-355.73 801.89,-353.45"/>
<polygon fill="black" stroke="black" points="802.75,-350.05 792.18,-350.81 800.91,-356.81 802.75,-350.05"/>
</g>
<!-- N2 -->
<g id="node4" class="node">
<title>N2</title>
<polygon fill="none" stroke="black" points="1320,-360 1266,-360 1266,-324 1320,-324 1320,-360"/>
<text text-anchor="middle" x="1293" y="-338.3" font-family="Times New Roman,serif" font-size="14.00">simple</text>
</g>
<!-- N1&#45;&gt;N2 -->
<g id="edge13" class="edge">
<title>N1&#45;&gt;N2</title>
<path fill="none" stroke="black" d="M1293,-431.97C1293,-415.38 1293,-389.88 1293,-370.43"/>
<polygon fill="black" stroke="black" points="1296.5,-370.34 1293,-360.34 1289.5,-370.34 1296.5,-370.34"/>
</g>
<!-- N3 -->
<g id="node5" class="node">
<title>N3</title>
<polygon fill="none" stroke="black" points="1470,-360 1392,-360 1392,-324 1470,-324 1470,-360"/>
<text text-anchor="middle" x="1431" y="-338.3" font-family="Times New Roman,serif" font-size="14.00">Parameters</text>
</g>
<!-- N1&#45;&gt;N3 -->
<g id="edge14" class="edge">
<title>N1&#45;&gt;N3</title>
<path fill="none" stroke="black" d="M1315.17,-431.97C1338.27,-414.23 1374.63,-386.3 1400.44,-366.47"/>
<polygon fill="black" stroke="black" points="1402.63,-369.21 1408.42,-360.34 1398.36,-363.66 1402.63,-369.21"/>
</g>
<!-- N4 -->
<g id="node6" class="node">
<title>N4</title>
<polygon fill="none" stroke="black" points="1767,-360 1713,-360 1713,-324 1767,-324 1767,-360"/>
<text text-anchor="middle" x="1740" y="-338.3" font-family="Times New Roman,serif" font-size="14.00">Bloc</text>
</g>
<!-- N1&#45;&gt;N4 -->
<g id="edge15" class="edge">
<title>N1&#45;&gt;N4</title>
<path fill="none" stroke="black" d="M1327.33,-440.86C1409.66,-421.34 1617.77,-371.99 1702.87,-351.81"/>
<polygon fill="black" stroke="black" points="1703.93,-355.15 1712.86,-349.44 1702.32,-348.34 1703.93,-355.15"/>
</g>
<!-- N5 -->
<g id="node7" class="node">
<title>N5</title>
<polygon fill="none" stroke="black" points="1704,-252 1650,-252 1650,-216 1704,-216 1704,-252"/>
<text text-anchor="middle" x="1677" y="-230.3" font-family="Times New Roman,serif" font-size="14.00">Var</text>
</g>
<!-- N4&#45;&gt;N5 -->
<g id="edge3" class="edge">
<title>N4&#45;&gt;N5</title>
<path fill="none" stroke="black" d="M1729.88,-323.97C1719.79,-306.99 1704.16,-280.7 1692.51,-261.09"/>
<polygon fill="black" stroke="black" points="1695.42,-259.15 1687.31,-252.34 1689.41,-262.73 1695.42,-259.15"/>
</g>
<!-- N8 -->
<g id="node12" class="node">
<title>N8</title>
<polygon fill="none" stroke="black" points="1830,-252 1776,-252 1776,-216 1830,-216 1830,-252"/>
<text text-anchor="middle" x="1803" y="-230.3" font-family="Times New Roman,serif" font-size="14.00"> = </text>
</g>
<!-- N4&#45;&gt;N8 -->
<g id="edge6" class="edge">
<title>N4&#45;&gt;N8</title>
<path fill="none" stroke="black" d="M1750.12,-323.97C1760.21,-306.99 1775.84,-280.7 1787.49,-261.09"/>
<polygon fill="black" stroke="black" points="1790.59,-262.73 1792.69,-252.34 1784.58,-259.15 1790.59,-262.73"/>
</g>
<!-- N11 -->
<g id="node17" class="node">
<title>N11</title>
<polygon fill="none" stroke="black" points="2082,-252 2028,-252 2028,-216 2082,-216 2082,-252"/>
<text text-anchor="middle" x="2055" y="-230.3" font-family="Times New Roman,serif" font-size="14.00">IfThen</text>
</g>
<!-- N4&#45;&gt;N11 -->
<g id="edge11" class="edge">
<title>N4&#45;&gt;N11</title>
<path fill="none" stroke="black" d="M1767.13,-331.87C1823.65,-312.85 1954.07,-268.96 2018.13,-247.41"/>
<polygon fill="black" stroke="black" points="2019.46,-250.65 2027.82,-244.14 2017.23,-244.02 2019.46,-250.65"/>
</g>
<!-- N6 -->
<g id="node8" class="node">
<title>N6</title>
<polygon fill="none" stroke="black" points="1578,-144 1524,-144 1524,-108 1578,-108 1578,-144"/>
<text text-anchor="middle" x="1551" y="-122.3" font-family="Times New Roman,serif" font-size="14.00">int</text>
</g>
<!-- N5&#45;&gt;N6 -->
<g id="edge1" class="edge">
<title>N5&#45;&gt;N6</title>
<path fill="none" stroke="black" d="M1656.76,-215.97C1635.85,-198.38 1603.04,-170.78 1579.51,-150.99"/>
<polygon fill="black" stroke="black" points="1581.52,-148.1 1571.61,-144.34 1577.01,-153.46 1581.52,-148.1"/>
</g>
<!-- N7 -->
<g id="node9" class="node">
<title>N7</title>
<polygon fill="none" stroke="black" points="1704,-144 1650,-144 1650,-108 1704,-108 1704,-144"/>
<text text-anchor="middle" x="1677" y="-122.3" font-family="Times New Roman,serif" font-size="14.00">bool</text>
</g>
<!-- N5&#45;&gt;N7 -->
<g id="edge2" class="edge">
<title>N5&#45;&gt;N7</title>
<path fill="none" stroke="black" d="M1677,-215.97C1677,-199.38 1677,-173.88 1677,-154.43"/>
<polygon fill="black" stroke="black" points="1680.5,-154.34 1677,-144.34 1673.5,-154.34 1680.5,-154.34"/>
</g>
<!-- N9 -->
<g id="node10" class="node">
<title>N9</title>
<polygon fill="none" stroke="black" points="1830,-144 1776,-144 1776,-108 1830,-108 1830,-144"/>
<text text-anchor="middle" x="1803" y="-122.3" font-family="Times New Roman,serif" font-size="14.00">bool</text>
</g>
<!-- N10 -->
<g id="node11" class="node">
<title>N10</title>
<polygon fill="none" stroke="black" points="1956,-144 1902,-144 1902,-108 1956,-108 1956,-144"/>
<text text-anchor="middle" x="1929" y="-122.3" font-family="Times New Roman,serif" font-size="14.00">0</text>
</g>
<!-- N8&#45;&gt;N9 -->
<g id="edge4" class="edge">
<title>N8&#45;&gt;N9</title>
<path fill="none" stroke="black" d="M1803,-215.97C1803,-199.38 1803,-173.88 1803,-154.43"/>
<polygon fill="black" stroke="black" points="1806.5,-154.34 1803,-144.34 1799.5,-154.34 1806.5,-154.34"/>
</g>
<!-- N8&#45;&gt;N10 -->
<g id="edge5" class="edge">
<title>N8&#45;&gt;N10</title>
<path fill="none" stroke="black" d="M1823.24,-215.97C1844.15,-198.38 1876.96,-170.78 1900.49,-150.99"/>
<polygon fill="black" stroke="black" points="1902.99,-153.46 1908.39,-144.34 1898.48,-148.1 1902.99,-153.46"/>
</g>
<!-- N12 -->
<g id="node13" class="node">
<title>N12</title>
<polygon fill="none" stroke="black" points="2082,-144 2028,-144 2028,-108 2082,-108 2082,-144"/>
<text text-anchor="middle" x="2055" y="-122.3" font-family="Times New Roman,serif" font-size="14.00">!</text>
</g>
<!-- N13 -->
<g id="node14" class="node">
<title>N13</title>
<polygon fill="none" stroke="black" points="2082,-36 2028,-36 2028,0 2082,0 2082,-36"/>
<text text-anchor="middle" x="2055" y="-14.3" font-family="Times New Roman,serif" font-size="14.00">bool</text>
</g>
<!-- N12&#45;&gt;N13 -->
<g id="edge7" class="edge">
<title>N12&#45;&gt;N13</title>
<path fill="none" stroke="black" d="M2055,-107.97C2055,-91.38 2055,-65.88 2055,-46.43"/>
<polygon fill="black" stroke="black" points="2058.5,-46.34 2055,-36.34 2051.5,-46.34 2058.5,-46.34"/>
</g>
<!-- N15 -->
<g id="node15" class="node">
<title>N15</title>
<polygon fill="none" stroke="black" points="2208,-36 2154,-36 2154,0 2208,0 2208,-36"/>
<text text-anchor="middle" x="2181" y="-14.3" font-family="Times New Roman,serif" font-size="14.00">1</text>
</g>
<!-- N14 -->
<g id="node16" class="node">
<title>N14</title>
<polygon fill="none" stroke="black" points="2208,-144 2154,-144 2154,-108 2208,-108 2208,-144"/>
<text text-anchor="middle" x="2181" y="-122.3" font-family="Times New Roman,serif" font-size="14.00">return</text>
</g>
<!-- N14&#45;&gt;N15 -->
<g id="edge8" class="edge">
<title>N14&#45;&gt;N15</title>
<path fill="none" stroke="black" d="M2181,-107.97C2181,-91.38 2181,-65.88 2181,-46.43"/>
<polygon fill="black" stroke="black" points="2184.5,-46.34 2181,-36.34 2177.5,-46.34 2184.5,-46.34"/>
</g>
<!-- N11&#45;&gt;N12 -->
<g id="edge9" class="edge">
<title>N11&#45;&gt;N12</title>
<path fill="none" stroke="black" d="M2055,-215.97C2055,-199.38 2055,-173.88 2055,-154.43"/>
<polygon fill="black" stroke="black" points="2058.5,-154.34 2055,-144.34 2051.5,-154.34 2058.5,-154.34"/>
</g>
<!-- N11&#45;&gt;N14 -->
<g id="edge10" class="edge">
<title>N11&#45;&gt;N14</title>
<path fill="none" stroke="black" d="M2075.24,-215.97C2096.15,-198.38 2128.96,-170.78 2152.49,-150.99"/>
<polygon fill="black" stroke="black" points="2154.99,-153.46 2160.39,-144.34 2150.48,-148.1 2154.99,-153.46"/>
</g>
<!-- N16&#45;&gt;int -->
<g id="edge31" class="edge">
<title>N16&#45;&gt;int</title>
<path fill="none" stroke="black" d="M659.24,-431.97C680.15,-414.38 712.96,-386.78 736.49,-366.99"/>
<polygon fill="black" stroke="black" points="738.99,-369.46 744.39,-360.34 734.48,-364.1 738.99,-369.46"/>
</g>
<!-- N17 -->
<g id="node19" class="node">
<title>N17</title>
<polygon fill="none" stroke="black" points="339,-360 285,-360 285,-324 339,-324 339,-360"/>
<text text-anchor="middle" x="312" y="-338.3" font-family="Times New Roman,serif" font-size="14.00">max</text>
</g>
<!-- N16&#45;&gt;N17 -->
<g id="edge32" class="edge">
<title>N16&#45;&gt;N17</title>
<path fill="none" stroke="black" d="M604.93,-437.96C543.13,-417.92 413.05,-375.75 349.09,-355.02"/>
<polygon fill="black" stroke="black" points="350.01,-351.64 339.42,-351.89 347.85,-358.3 350.01,-351.64"/>
</g>
<!-- N18 -->
<g id="node20" class="node">
<title>N18</title>
<polygon fill="none" stroke="black" points="489,-360 411,-360 411,-324 489,-324 489,-360"/>
<text text-anchor="middle" x="450" y="-338.3" font-family="Times New Roman,serif" font-size="14.00">Parameters</text>
</g>
<!-- N16&#45;&gt;N18 -->
<g id="edge33" class="edge">
<title>N16&#45;&gt;N18</title>
<path fill="none" stroke="black" d="M608.63,-431.97C576.35,-413.86 525.17,-385.16 489.71,-365.27"/>
<polygon fill="black" stroke="black" points="491.04,-362 480.6,-360.16 487.61,-368.11 491.04,-362"/>
</g>
<!-- N25 -->
<g id="node27" class="node">
<title>N25</title>
<polygon fill="none" stroke="black" points="666,-360 612,-360 612,-324 666,-324 666,-360"/>
<text text-anchor="middle" x="639" y="-338.3" font-family="Times New Roman,serif" font-size="14.00">Bloc</text>
</g>
<!-- N16&#45;&gt;N25 -->
<g id="edge34" class="edge">
<title>N16&#45;&gt;N25</title>
<path fill="none" stroke="black" d="M639,-431.97C639,-415.38 639,-389.88 639,-370.43"/>
<polygon fill="black" stroke="black" points="642.5,-370.34 639,-360.34 635.5,-370.34 642.5,-370.34"/>
</g>
<!-- N19 -->
<g id="node21" class="node">
<title>N19</title>
<polygon fill="none" stroke="black" points="180,-252 126,-252 126,-216 180,-216 180,-252"/>
<text text-anchor="middle" x="153" y="-230.3" font-family="Times New Roman,serif" font-size="14.00">Param</text>
</g>
<!-- N18&#45;&gt;N19 -->
<g id="edge19" class="edge">
<title>N18&#45;&gt;N19</title>
<path fill="none" stroke="black" d="M410.87,-327.03C353.21,-306.46 246.2,-268.26 189.87,-248.16"/>
<polygon fill="black" stroke="black" points="190.89,-244.81 180.29,-244.74 188.54,-251.4 190.89,-244.81"/>
</g>
<!-- N22 -->
<g id="node24" class="node">
<title>N22</title>
<polygon fill="none" stroke="black" points="432,-252 378,-252 378,-216 432,-216 432,-252"/>
<text text-anchor="middle" x="405" y="-230.3" font-family="Times New Roman,serif" font-size="14.00">Param</text>
</g>
<!-- N18&#45;&gt;N22 -->
<g id="edge22" class="edge">
<title>N18&#45;&gt;N22</title>
<path fill="none" stroke="black" d="M442.77,-323.97C435.63,-307.15 424.6,-281.17 416.3,-261.62"/>
<polygon fill="black" stroke="black" points="419.49,-260.18 412.36,-252.34 413.05,-262.91 419.49,-260.18"/>
</g>
<!-- N20 -->
<g id="node22" class="node">
<title>N20</title>
<polygon fill="none" stroke="black" points="180,-144 126,-144 126,-108 180,-108 180,-144"/>
<text text-anchor="middle" x="153" y="-122.3" font-family="Times New Roman,serif" font-size="14.00">int</text>
</g>
<!-- N19&#45;&gt;N20 -->
<g id="edge17" class="edge">
<title>N19&#45;&gt;N20</title>
<path fill="none" stroke="black" d="M153,-215.97C153,-199.38 153,-173.88 153,-154.43"/>
<polygon fill="black" stroke="black" points="156.5,-154.34 153,-144.34 149.5,-154.34 156.5,-154.34"/>
</g>
<!-- N21 -->
<g id="node23" class="node">
<title>N21</title>
<polygon fill="none" stroke="black" points="54,-144 0,-144 0,-108 54,-108 54,-144"/>
<text text-anchor="middle" x="27" y="-122.3" font-family="Times New Roman,serif" font-size="14.00">a</text>
</g>
<!-- N19&#45;&gt;N21 -->
<g id="edge18" class="edge">
<title>N19&#45;&gt;N21</title>
<path fill="none" stroke="black" d="M132.76,-215.97C111.85,-198.38 79.04,-170.78 55.51,-150.99"/>
<polygon fill="black" stroke="black" points="57.52,-148.1 47.61,-144.34 53.01,-153.46 57.52,-148.1"/>
</g>
<!-- N23 -->
<g id="node25" class="node">
<title>N23</title>
<polygon fill="none" stroke="black" points="432,-144 378,-144 378,-108 432,-108 432,-144"/>
<text text-anchor="middle" x="405" y="-122.3" font-family="Times New Roman,serif" font-size="14.00">int</text>
</g>
<!-- N22&#45;&gt;N23 -->
<g id="edge20" class="edge">
<title>N22&#45;&gt;N23</title>
<path fill="none" stroke="black" d="M405,-215.97C405,-199.38 405,-173.88 405,-154.43"/>
<polygon fill="black" stroke="black" points="408.5,-154.34 405,-144.34 401.5,-154.34 408.5,-154.34"/>
</g>
<!-- N24 -->
<g id="node26" class="node">
<title>N24</title>
<polygon fill="none" stroke="black" points="306,-144 252,-144 252,-108 306,-108 306,-144"/>
<text text-anchor="middle" x="279" y="-122.3" font-family="Times New Roman,serif" font-size="14.00">b</text>
</g>
<!-- N22&#45;&gt;N24 -->
<g id="edge21" class="edge">
<title>N22&#45;&gt;N24</title>
<path fill="none" stroke="black" d="M384.76,-215.97C363.85,-198.38 331.04,-170.78 307.51,-150.99"/>
<polygon fill="black" stroke="black" points="309.52,-148.1 299.61,-144.34 305.01,-153.46 309.52,-148.1"/>
</g>
<!-- N26 -->
<g id="node35" class="node">
<title>N26</title>
<polygon fill="none" stroke="black" points="689.5,-252 612.5,-252 612.5,-216 689.5,-216 689.5,-252"/>
<text text-anchor="middle" x="651" y="-230.3" font-family="Times New Roman,serif" font-size="14.00">IfThenElse</text>
</g>
<!-- N25&#45;&gt;N26 -->
<g id="edge30" class="edge">
<title>N25&#45;&gt;N26</title>
<path fill="none" stroke="black" d="M640.93,-323.97C642.81,-307.38 645.69,-281.88 647.89,-262.43"/>
<polygon fill="black" stroke="black" points="651.39,-262.67 649.04,-252.34 644.43,-261.88 651.39,-262.67"/>
</g>
<!-- N28 -->
<g id="node28" class="node">
<title>N28</title>
<polygon fill="none" stroke="black" points="747,-36 693,-36 693,0 747,0 747,-36"/>
<text text-anchor="middle" x="720" y="-14.3" font-family="Times New Roman,serif" font-size="14.00">a</text>
</g>
<!-- N29 -->
<g id="node29" class="node">
<title>N29</title>
<polygon fill="none" stroke="black" points="621,-36 567,-36 567,0 621,0 621,-36"/>
<text text-anchor="middle" x="594" y="-14.3" font-family="Times New Roman,serif" font-size="14.00">b</text>
</g>
<!-- N27 -->
<g id="node30" class="node">
<title>N27</title>
<polygon fill="none" stroke="black" points="684,-144 630,-144 630,-108 684,-108 684,-144"/>
<text text-anchor="middle" x="657" y="-122.3" font-family="Times New Roman,serif" font-size="14.00">&lt;</text>
</g>
<!-- N27&#45;&gt;N28 -->
<g id="edge23" class="edge">
<title>N27&#45;&gt;N28</title>
<path fill="none" stroke="black" d="M667.12,-107.97C677.21,-90.99 692.84,-64.7 704.49,-45.09"/>
<polygon fill="black" stroke="black" points="707.59,-46.73 709.69,-36.34 701.58,-43.15 707.59,-46.73"/>
</g>
<!-- N27&#45;&gt;N29 -->
<g id="edge24" class="edge">
<title>N27&#45;&gt;N29</title>
<path fill="none" stroke="black" d="M646.88,-107.97C636.79,-90.99 621.16,-64.7 609.51,-45.09"/>
<polygon fill="black" stroke="black" points="612.42,-43.15 604.31,-36.34 606.41,-46.73 612.42,-43.15"/>
</g>
<!-- N31 -->
<g id="node31" class="node">
<title>N31</title>
<polygon fill="none" stroke="black" points="873,-36 819,-36 819,0 873,0 873,-36"/>
<text text-anchor="middle" x="846" y="-14.3" font-family="Times New Roman,serif" font-size="14.00">b</text>
</g>
<!-- N30 -->
<g id="node32" class="node">
<title>N30</title>
<polygon fill="none" stroke="black" points="810,-144 756,-144 756,-108 810,-108 810,-144"/>
<text text-anchor="middle" x="783" y="-122.3" font-family="Times New Roman,serif" font-size="14.00">return</text>
</g>
<!-- N30&#45;&gt;N31 -->
<g id="edge25" class="edge">
<title>N30&#45;&gt;N31</title>
<path fill="none" stroke="black" d="M793.12,-107.97C803.21,-90.99 818.84,-64.7 830.49,-45.09"/>
<polygon fill="black" stroke="black" points="833.59,-46.73 835.69,-36.34 827.58,-43.15 833.59,-46.73"/>
</g>
<!-- N33 -->
<g id="node33" class="node">
<title>N33</title>
<polygon fill="none" stroke="black" points="495,-36 441,-36 441,0 495,0 495,-36"/>
<text text-anchor="middle" x="468" y="-14.3" font-family="Times New Roman,serif" font-size="14.00">a</text>
</g>
<!-- N32 -->
<g id="node34" class="node">
<title>N32</title>
<polygon fill="none" stroke="black" points="558,-144 504,-144 504,-108 558,-108 558,-144"/>
<text text-anchor="middle" x="531" y="-122.3" font-family="Times New Roman,serif" font-size="14.00">return</text>
</g>
<!-- N32&#45;&gt;N33 -->
<g id="edge26" class="edge">
<title>N32&#45;&gt;N33</title>
<path fill="none" stroke="black" d="M520.88,-107.97C510.79,-90.99 495.16,-64.7 483.51,-45.09"/>
<polygon fill="black" stroke="black" points="486.42,-43.15 478.31,-36.34 480.41,-46.73 486.42,-43.15"/>
</g>
<!-- N26&#45;&gt;N27 -->
<g id="edge27" class="edge">
<title>N26&#45;&gt;N27</title>
<path fill="none" stroke="black" d="M651.96,-215.97C652.9,-199.38 654.35,-173.88 655.45,-154.43"/>
<polygon fill="black" stroke="black" points="658.95,-154.52 656.02,-144.34 651.96,-154.13 658.95,-154.52"/>
</g>
<!-- N26&#45;&gt;N30 -->
<g id="edge28" class="edge">
<title>N26&#45;&gt;N30</title>
<path fill="none" stroke="black" d="M672.21,-215.97C694.21,-198.3 728.78,-170.54 753.45,-150.73"/>
<polygon fill="black" stroke="black" points="755.8,-153.33 761.41,-144.34 751.42,-147.87 755.8,-153.33"/>
</g>
<!-- N26&#45;&gt;N32 -->
<g id="edge29" class="edge">
<title>N26&#45;&gt;N32</title>
<path fill="none" stroke="black" d="M631.72,-215.97C611.81,-198.38 580.56,-170.78 558.16,-150.99"/>
<polygon fill="black" stroke="black" points="560.44,-148.34 550.63,-144.34 555.81,-153.58 560.44,-148.34"/>
</g>
<!-- N34&#45;&gt;int -->
<g id="edge45" class="edge">
<title>N34&#45;&gt;int</title>
<path fill="none" stroke="black" d="M928.67,-431.97C893.83,-413.03 837.66,-382.5 801.03,-362.59"/>
<polygon fill="black" stroke="black" points="802.62,-359.47 792.16,-357.77 799.28,-365.62 802.62,-359.47"/>
</g>
<!-- N35 -->
<g id="node37" class="node">
<title>N35</title>
<polygon fill="none" stroke="black" points="918,-360 864,-360 864,-324 918,-324 918,-360"/>
<text text-anchor="middle" x="891" y="-338.3" font-family="Times New Roman,serif" font-size="14.00">main</text>
</g>
<!-- N34&#45;&gt;N35 -->
<g id="edge46" class="edge">
<title>N34&#45;&gt;N35</title>
<path fill="none" stroke="black" d="M948.91,-431.97C937.81,-414.92 920.59,-388.46 907.81,-368.82"/>
<polygon fill="black" stroke="black" points="910.68,-366.81 902.29,-360.34 904.81,-370.63 910.68,-366.81"/>
</g>
<!-- N36 -->
<g id="node38" class="node">
<title>N36</title>
<polygon fill="none" stroke="black" points="1068,-360 990,-360 990,-324 1068,-324 1068,-360"/>
<text text-anchor="middle" x="1029" y="-338.3" font-family="Times New Roman,serif" font-size="14.00">Parameters</text>
</g>
<!-- N34&#45;&gt;N36 -->
<g id="edge47" class="edge">
<title>N34&#45;&gt;N36</title>
<path fill="none" stroke="black" d="M971.09,-431.97C982.19,-414.92 999.41,-388.46 1012.19,-368.82"/>
<polygon fill="black" stroke="black" points="1015.19,-370.63 1017.71,-360.34 1009.32,-366.81 1015.19,-370.63"/>
</g>
<!-- N37 -->
<g id="node39" class="node">
<title>N37</title>
<polygon fill="none" stroke="black" points="1194,-360 1140,-360 1140,-324 1194,-324 1194,-360"/>
<text text-anchor="middle" x="1167" y="-338.3" font-family="Times New Roman,serif" font-size="14.00">Bloc</text>
</g>
<!-- N34&#45;&gt;N37 -->
<g id="edge48" class="edge">
<title>N34&#45;&gt;N37</title>
<path fill="none" stroke="black" d="M993.26,-431.97C1030.77,-412.76 1091.57,-381.62 1130.4,-361.74"/>
<polygon fill="black" stroke="black" points="1132.47,-364.62 1139.77,-356.94 1129.28,-358.39 1132.47,-364.62"/>
</g>
<!-- N38 -->
<g id="node40" class="node">
<title>N38</title>
<polygon fill="none" stroke="black" points="1062,-252 1008,-252 1008,-216 1062,-216 1062,-252"/>
<text text-anchor="middle" x="1035" y="-230.3" font-family="Times New Roman,serif" font-size="14.00">Var</text>
</g>
<!-- N37&#45;&gt;N38 -->
<g id="edge38" class="edge">
<title>N37&#45;&gt;N38</title>
<path fill="none" stroke="black" d="M1145.79,-323.97C1123.79,-306.3 1089.22,-278.54 1064.55,-258.73"/>
<polygon fill="black" stroke="black" points="1066.58,-255.87 1056.59,-252.34 1062.2,-261.33 1066.58,-255.87"/>
</g>
<!-- N41 -->
<g id="node46" class="node">
<title>N41</title>
<polygon fill="none" stroke="black" points="1194,-252 1140,-252 1140,-216 1194,-216 1194,-252"/>
<text text-anchor="middle" x="1167" y="-230.3" font-family="Times New Roman,serif" font-size="14.00"> = </text>
</g>
<!-- N37&#45;&gt;N41 -->
<g id="edge42" class="edge">
<title>N37&#45;&gt;N41</title>
<path fill="none" stroke="black" d="M1167,-323.97C1167,-307.38 1167,-281.88 1167,-262.43"/>
<polygon fill="black" stroke="black" points="1170.5,-262.34 1167,-252.34 1163.5,-262.34 1170.5,-262.34"/>
</g>
<!-- N45 -->
<g id="node48" class="node">
<title>N45</title>
<polygon fill="none" stroke="black" points="1383,-252 1329,-252 1329,-216 1383,-216 1383,-252"/>
<text text-anchor="middle" x="1356" y="-230.3" font-family="Times New Roman,serif" font-size="14.00">return</text>
</g>
<!-- N37&#45;&gt;N45 -->
<g id="edge44" class="edge">
<title>N37&#45;&gt;N45</title>
<path fill="none" stroke="black" d="M1194.08,-325.81C1227.2,-307.24 1283.38,-275.73 1320.08,-255.14"/>
<polygon fill="black" stroke="black" points="1321.96,-258.1 1328.97,-250.16 1318.54,-252 1321.96,-258.1"/>
</g>
<!-- N39 -->
<g id="node41" class="node">
<title>N39</title>
<polygon fill="none" stroke="black" points="936,-144 882,-144 882,-108 936,-108 936,-144"/>
<text text-anchor="middle" x="909" y="-122.3" font-family="Times New Roman,serif" font-size="14.00">int</text>
</g>
<!-- N38&#45;&gt;N39 -->
<g id="edge36" class="edge">
<title>N38&#45;&gt;N39</title>
<path fill="none" stroke="black" d="M1014.76,-215.97C993.85,-198.38 961.04,-170.78 937.51,-150.99"/>
<polygon fill="black" stroke="black" points="939.52,-148.1 929.61,-144.34 935.01,-153.46 939.52,-148.1"/>
</g>
<!-- N40 -->
<g id="node42" class="node">
<title>N40</title>
<polygon fill="none" stroke="black" points="1062,-144 1008,-144 1008,-108 1062,-108 1062,-144"/>
<text text-anchor="middle" x="1035" y="-122.3" font-family="Times New Roman,serif" font-size="14.00">bool</text>
</g>
<!-- N38&#45;&gt;N40 -->
<g id="edge37" class="edge">
<title>N38&#45;&gt;N40</title>
<path fill="none" stroke="black" d="M1035,-215.97C1035,-199.38 1035,-173.88 1035,-154.43"/>
<polygon fill="black" stroke="black" points="1038.5,-154.34 1035,-144.34 1031.5,-154.34 1038.5,-154.34"/>
</g>
<!-- N42 -->
<g id="node43" class="node">
<title>N42</title>
<polygon fill="none" stroke="black" points="1188,-144 1134,-144 1134,-108 1188,-108 1188,-144"/>
<text text-anchor="middle" x="1161" y="-122.3" font-family="Times New Roman,serif" font-size="14.00">bool</text>
</g>
<!-- N44 -->
<g id="node44" class="node">
<title>N44</title>
<polygon fill="none" stroke="black" points="1320,-36 1266,-36 1266,0 1320,0 1320,-36"/>
<text text-anchor="middle" x="1293" y="-14.3" font-family="Times New Roman,serif" font-size="14.00">simple</text>
</g>
<!-- N43 -->
<g id="node45" class="node">
<title>N43</title>
<polygon fill="none" stroke="black" points="1326,-144 1260,-144 1260,-108 1326,-108 1326,-144"/>
<text text-anchor="middle" x="1293" y="-122.3" font-family="Times New Roman,serif" font-size="14.00">Function</text>
</g>
<!-- N43&#45;&gt;N44 -->
<g id="edge39" class="edge">
<title>N43&#45;&gt;N44</title>
<path fill="none" stroke="black" d="M1293,-107.97C1293,-91.38 1293,-65.88 1293,-46.43"/>
<polygon fill="black" stroke="black" points="1296.5,-46.34 1293,-36.34 1289.5,-46.34 1296.5,-46.34"/>
</g>
<!-- N41&#45;&gt;N42 -->
<g id="edge40" class="edge">
<title>N41&#45;&gt;N42</title>
<path fill="none" stroke="black" d="M1166.04,-215.97C1165.1,-199.38 1163.65,-173.88 1162.55,-154.43"/>
<polygon fill="black" stroke="black" points="1166.04,-154.13 1161.98,-144.34 1159.05,-154.52 1166.04,-154.13"/>
</g>
<!-- N41&#45;&gt;N43 -->
<g id="edge41" class="edge">
<title>N41&#45;&gt;N43</title>
<path fill="none" stroke="black" d="M1187.24,-215.97C1208.15,-198.38 1240.96,-170.78 1264.49,-150.99"/>
<polygon fill="black" stroke="black" points="1266.99,-153.46 1272.39,-144.34 1262.48,-148.1 1266.99,-153.46"/>
</g>
<!-- N46 -->
<g id="node47" class="node">
<title>N46</title>
<polygon fill="none" stroke="black" points="1452,-144 1398,-144 1398,-108 1452,-108 1452,-144"/>
<text text-anchor="middle" x="1425" y="-122.3" font-family="Times New Roman,serif" font-size="14.00">bool</text>
</g>
<!-- N45&#45;&gt;N46 -->
<g id="edge43" class="edge">
<title>N45&#45;&gt;N46</title>
<path fill="none" stroke="black" d="M1367.09,-215.97C1378.19,-198.92 1395.41,-172.46 1408.19,-152.82"/>
<polygon fill="black" stroke="black" points="1411.19,-154.63 1413.71,-144.34 1405.32,-150.81 1411.19,-154.63"/>
</g>
</g>
</svg>
