<?xml version="1.0" encoding="UTF-8" standalone="no"?>
<!DOCTYPE svg PUBLIC "-//W3C//DTD SVG 1.1//EN"
 "http://www.w3.org/Graphics/SVG/1.1/DTD/svg11.dtd">
<!-- Generated by graphviz version 2.49.3 (20211023.0002)
 -->
<!-- Title: ast Pages: 1 -->
<svg width="2969pt" height="692pt"
 viewBox="0.00 0.00 2968.50 692.00" xmlns="http://www.w3.org/2000/svg" xmlns:xlink="http://www.w3.org/1999/xlink">
<g id="graph0" class="graph" transform="scale(1 1) rotate(0) translate(4 688)">
<title>ast</title>
<polygon fill="white" stroke="transparent" points="-4,4 -4,-688 2964.5,-688 2964.5,4 -4,4"/>
<!-- N0 -->
<g id="node1" class="node">
<title>N0</title>
<polygon fill="none" stroke="black" points="649,-684 584,-684 584,-648 649,-648 649,-684"/>
<text text-anchor="middle" x="616.5" y="-662.3" font-family="Times New Roman,serif" font-size="14.00">Program</text>
</g>
<!-- N1 -->
<g id="node2" class="node">
<title>N1</title>
<polygon fill="none" stroke="black" points="210,-576 131,-576 131,-540 210,-540 210,-576"/>
<text text-anchor="middle" x="170.5" y="-554.3" font-family="Times New Roman,serif" font-size="14.00">Decl_Type</text>
</g>
<!-- N0&#45;&gt;N1 -->
<g id="edge6" class="edge">
<title>N0&#45;&gt;N1</title>
<path fill="none" stroke="black" d="M583.7,-657.21C506.34,-638.82 312.06,-592.65 220.16,-570.8"/>
<polygon fill="black" stroke="black" points="220.81,-567.36 210.27,-568.45 219.19,-574.17 220.81,-567.36"/>
</g>
<!-- N7 -->
<g id="node8" class="node">
<title>N7</title>
<polygon fill="none" stroke="black" points="484,-576 405,-576 405,-540 484,-540 484,-576"/>
<text text-anchor="middle" x="444.5" y="-554.3" font-family="Times New Roman,serif" font-size="14.00">Decl_Type</text>
</g>
<!-- N0&#45;&gt;N7 -->
<g id="edge9" class="edge">
<title>N0&#45;&gt;N7</title>
<path fill="none" stroke="black" d="M588.87,-647.97C559.61,-629.94 513.3,-601.4 481.05,-581.53"/>
<polygon fill="black" stroke="black" points="482.7,-578.43 472.35,-576.16 479.03,-584.39 482.7,-578.43"/>
</g>
<!-- N10 -->
<g id="node11" class="node">
<title>N10</title>
<polygon fill="none" stroke="black" points="840.5,-576 738.5,-576 738.5,-540 840.5,-540 840.5,-576"/>
<text text-anchor="middle" x="789.5" y="-554.3" font-family="Times New Roman,serif" font-size="14.00">Decl_StructFct</text>
</g>
<!-- N0&#45;&gt;N10 -->
<g id="edge27" class="edge">
<title>N0&#45;&gt;N10</title>
<path fill="none" stroke="black" d="M644.3,-647.97C673.72,-629.94 720.3,-601.4 752.74,-581.53"/>
<polygon fill="black" stroke="black" points="754.79,-584.37 761.49,-576.16 751.13,-578.4 754.79,-584.37"/>
</g>
<!-- N28 -->
<g id="node29" class="node">
<title>N28</title>
<polygon fill="none" stroke="black" points="1647.5,-576 1579.5,-576 1579.5,-540 1647.5,-540 1647.5,-576"/>
<text text-anchor="middle" x="1613.5" y="-554.3" font-family="Times New Roman,serif" font-size="14.00">Decl_Fct</text>
</g>
<!-- N0&#45;&gt;N28 -->
<g id="edge63" class="edge">
<title>N0&#45;&gt;N28</title>
<path fill="none" stroke="black" d="M649.11,-661.53C796.45,-645.87 1400.27,-581.67 1569.33,-563.7"/>
<polygon fill="black" stroke="black" points="1569.79,-567.17 1579.37,-562.63 1569.05,-560.21 1569.79,-567.17"/>
</g>
<!-- N2 -->
<g id="node3" class="node">
<title>N2</title>
<polygon fill="none" stroke="black" points="67,-468 0,-468 0,-432 67,-432 67,-468"/>
<text text-anchor="middle" x="33.5" y="-446.3" font-family="Times New Roman,serif" font-size="14.00">struct S1</text>
</g>
<!-- N1&#45;&gt;N2 -->
<g id="edge1" class="edge">
<title>N1&#45;&gt;N2</title>
<path fill="none" stroke="black" d="M148.49,-539.97C125.56,-522.23 89.46,-494.3 63.83,-474.47"/>
<polygon fill="black" stroke="black" points="65.96,-471.69 55.91,-468.34 61.68,-477.23 65.96,-471.69"/>
</g>
<!-- N3 -->
<g id="node4" class="node">
<title>N3</title>
<polygon fill="none" stroke="black" points="202,-468 139,-468 139,-432 202,-432 202,-468"/>
<text text-anchor="middle" x="170.5" y="-446.3" font-family="Times New Roman,serif" font-size="14.00">Champs</text>
</g>
<!-- N1&#45;&gt;N3 -->
<g id="edge2" class="edge">
<title>N1&#45;&gt;N3</title>
<path fill="none" stroke="black" d="M170.5,-539.97C170.5,-523.38 170.5,-497.88 170.5,-478.43"/>
<polygon fill="black" stroke="black" points="174,-478.34 170.5,-468.34 167,-478.34 174,-478.34"/>
</g>
<!-- N4 -->
<g id="node5" class="node">
<title>N4</title>
<polygon fill="none" stroke="black" points="197.5,-360 143.5,-360 143.5,-324 197.5,-324 197.5,-360"/>
<text text-anchor="middle" x="170.5" y="-338.3" font-family="Times New Roman,serif" font-size="14.00">Var</text>
</g>
<!-- N3&#45;&gt;N4 -->
<g id="edge5" class="edge">
<title>N3&#45;&gt;N4</title>
<path fill="none" stroke="black" d="M170.5,-431.97C170.5,-415.38 170.5,-389.88 170.5,-370.43"/>
<polygon fill="black" stroke="black" points="174,-370.34 170.5,-360.34 167,-370.34 174,-370.34"/>
</g>
<!-- N5 -->
<g id="node6" class="node">
<title>N5</title>
<polygon fill="none" stroke="black" points="163.5,-252 109.5,-252 109.5,-216 163.5,-216 163.5,-252"/>
<text text-anchor="middle" x="136.5" y="-230.3" font-family="Times New Roman,serif" font-size="14.00">int</text>
</g>
<!-- N4&#45;&gt;N5 -->
<g id="edge3" class="edge">
<title>N4&#45;&gt;N5</title>
<path fill="none" stroke="black" d="M165.04,-323.97C159.67,-307.22 151.39,-281.41 145.13,-261.89"/>
<polygon fill="black" stroke="black" points="148.45,-260.79 142.06,-252.34 141.78,-262.93 148.45,-260.79"/>
</g>
<!-- N6 -->
<g id="node7" class="node">
<title>N6</title>
<polygon fill="none" stroke="black" points="289.5,-252 235.5,-252 235.5,-216 289.5,-216 289.5,-252"/>
<text text-anchor="middle" x="262.5" y="-230.3" font-family="Times New Roman,serif" font-size="14.00">a</text>
</g>
<!-- N4&#45;&gt;N6 -->
<g id="edge4" class="edge">
<title>N4&#45;&gt;N6</title>
<path fill="none" stroke="black" d="M185.28,-323.97C200.28,-306.69 223.67,-279.74 240.77,-260.03"/>
<polygon fill="black" stroke="black" points="243.54,-262.19 247.45,-252.34 238.25,-257.6 243.54,-262.19"/>
</g>
<!-- N8 -->
<g id="node9" class="node">
<title>N8</title>
<polygon fill="none" stroke="black" points="341,-468 274,-468 274,-432 341,-432 341,-468"/>
<text text-anchor="middle" x="307.5" y="-446.3" font-family="Times New Roman,serif" font-size="14.00">struct S2</text>
</g>
<!-- N7&#45;&gt;N8 -->
<g id="edge7" class="edge">
<title>N7&#45;&gt;N8</title>
<path fill="none" stroke="black" d="M422.49,-539.97C399.56,-522.23 363.46,-494.3 337.83,-474.47"/>
<polygon fill="black" stroke="black" points="339.96,-471.69 329.91,-468.34 335.68,-477.23 339.96,-471.69"/>
</g>
<!-- N9 -->
<g id="node10" class="node">
<title>N9</title>
<polygon fill="none" stroke="black" points="476,-468 413,-468 413,-432 476,-432 476,-468"/>
<text text-anchor="middle" x="444.5" y="-446.3" font-family="Times New Roman,serif" font-size="14.00">Champs</text>
</g>
<!-- N7&#45;&gt;N9 -->
<g id="edge8" class="edge">
<title>N7&#45;&gt;N9</title>
<path fill="none" stroke="black" d="M444.5,-539.97C444.5,-523.38 444.5,-497.88 444.5,-478.43"/>
<polygon fill="black" stroke="black" points="448,-478.34 444.5,-468.34 441,-478.34 448,-478.34"/>
</g>
<!-- N11 -->
<g id="node12" class="node">
<title>N11</title>
<polygon fill="none" stroke="black" points="690.5,-468 548.5,-468 548.5,-432 690.5,-432 690.5,-468"/>
<text text-anchor="middle" x="619.5" y="-446.3" font-family="Times New Roman,serif" font-size="14.00">struct ast.Idf@1ff8b8f</text>
</g>
<!-- N10&#45;&gt;N11 -->
<g id="edge23" class="edge">
<title>N10&#45;&gt;N11</title>
<path fill="none" stroke="black" d="M762.19,-539.97C733.27,-521.94 687.5,-493.4 655.63,-473.53"/>
<polygon fill="black" stroke="black" points="657.36,-470.49 647.03,-468.16 653.66,-476.43 657.36,-470.49"/>
</g>
<!-- N12 -->
<g id="node13" class="node">
<title>N12</title>
<polygon fill="none" stroke="black" points="816.5,-468 762.5,-468 762.5,-432 816.5,-432 816.5,-468"/>
<text text-anchor="middle" x="789.5" y="-446.3" font-family="Times New Roman,serif" font-size="14.00">fctS</text>
</g>
<!-- N10&#45;&gt;N12 -->
<g id="edge24" class="edge">
<title>N10&#45;&gt;N12</title>
<path fill="none" stroke="black" d="M789.5,-539.97C789.5,-523.38 789.5,-497.88 789.5,-478.43"/>
<polygon fill="black" stroke="black" points="793,-478.34 789.5,-468.34 786,-478.34 793,-478.34"/>
</g>
<!-- N13 -->
<g id="node14" class="node">
<title>N13</title>
<polygon fill="none" stroke="black" points="966.5,-468 888.5,-468 888.5,-432 966.5,-432 966.5,-468"/>
<text text-anchor="middle" x="927.5" y="-446.3" font-family="Times New Roman,serif" font-size="14.00">Parameters</text>
</g>
<!-- N10&#45;&gt;N13 -->
<g id="edge25" class="edge">
<title>N10&#45;&gt;N13</title>
<path fill="none" stroke="black" d="M811.67,-539.97C834.77,-522.23 871.13,-494.3 896.94,-474.47"/>
<polygon fill="black" stroke="black" points="899.13,-477.21 904.92,-468.34 894.86,-471.66 899.13,-477.21"/>
</g>
<!-- N20 -->
<g id="node21" class="node">
<title>N20</title>
<polygon fill="none" stroke="black" points="1125.5,-468 1071.5,-468 1071.5,-432 1125.5,-432 1125.5,-468"/>
<text text-anchor="middle" x="1098.5" y="-446.3" font-family="Times New Roman,serif" font-size="14.00">Bloc</text>
</g>
<!-- N10&#45;&gt;N20 -->
<g id="edge26" class="edge">
<title>N10&#45;&gt;N20</title>
<path fill="none" stroke="black" d="M839.15,-539.97C901.3,-518.65 1006.32,-482.62 1061.73,-463.61"/>
<polygon fill="black" stroke="black" points="1063.15,-466.83 1071.48,-460.27 1060.88,-460.2 1063.15,-466.83"/>
</g>
<!-- N14 -->
<g id="node15" class="node">
<title>N14</title>
<polygon fill="none" stroke="black" points="614.5,-360 560.5,-360 560.5,-324 614.5,-324 614.5,-360"/>
<text text-anchor="middle" x="587.5" y="-338.3" font-family="Times New Roman,serif" font-size="14.00">Param</text>
</g>
<!-- N13&#45;&gt;N14 -->
<g id="edge12" class="edge">
<title>N13&#45;&gt;N14</title>
<path fill="none" stroke="black" d="M888.5,-436.84C822.44,-416.24 689.41,-374.77 624.63,-354.58"/>
<polygon fill="black" stroke="black" points="625.43,-351.16 614.84,-351.52 623.35,-357.84 625.43,-351.16"/>
</g>
<!-- N17 -->
<g id="node18" class="node">
<title>N17</title>
<polygon fill="none" stroke="black" points="880.5,-360 826.5,-360 826.5,-324 880.5,-324 880.5,-360"/>
<text text-anchor="middle" x="853.5" y="-338.3" font-family="Times New Roman,serif" font-size="14.00">Param</text>
</g>
<!-- N13&#45;&gt;N17 -->
<g id="edge15" class="edge">
<title>N13&#45;&gt;N17</title>
<path fill="none" stroke="black" d="M915.61,-431.97C903.65,-414.84 885.07,-388.22 871.34,-368.56"/>
<polygon fill="black" stroke="black" points="874.2,-366.54 865.61,-360.34 868.46,-370.54 874.2,-366.54"/>
</g>
<!-- N15 -->
<g id="node16" class="node">
<title>N15</title>
<polygon fill="none" stroke="black" points="488,-252 421,-252 421,-216 488,-216 488,-252"/>
<text text-anchor="middle" x="454.5" y="-230.3" font-family="Times New Roman,serif" font-size="14.00">struct S1</text>
</g>
<!-- N14&#45;&gt;N15 -->
<g id="edge10" class="edge">
<title>N14&#45;&gt;N15</title>
<path fill="none" stroke="black" d="M566.13,-323.97C543.96,-306.3 509.13,-278.54 484.27,-258.73"/>
<polygon fill="black" stroke="black" points="486.26,-255.84 476.26,-252.34 481.9,-261.31 486.26,-255.84"/>
</g>
<!-- N16 -->
<g id="node17" class="node">
<title>N16</title>
<polygon fill="none" stroke="black" points="614.5,-252 560.5,-252 560.5,-216 614.5,-216 614.5,-252"/>
<text text-anchor="middle" x="587.5" y="-230.3" font-family="Times New Roman,serif" font-size="14.00">st1</text>
</g>
<!-- N14&#45;&gt;N16 -->
<g id="edge11" class="edge">
<title>N14&#45;&gt;N16</title>
<path fill="none" stroke="black" d="M587.5,-323.97C587.5,-307.38 587.5,-281.88 587.5,-262.43"/>
<polygon fill="black" stroke="black" points="591,-262.34 587.5,-252.34 584,-262.34 591,-262.34"/>
</g>
<!-- N18 -->
<g id="node19" class="node">
<title>N18</title>
<polygon fill="none" stroke="black" points="754,-252 687,-252 687,-216 754,-216 754,-252"/>
<text text-anchor="middle" x="720.5" y="-230.3" font-family="Times New Roman,serif" font-size="14.00">struct S2</text>
</g>
<!-- N17&#45;&gt;N18 -->
<g id="edge13" class="edge">
<title>N17&#45;&gt;N18</title>
<path fill="none" stroke="black" d="M832.13,-323.97C809.96,-306.3 775.13,-278.54 750.27,-258.73"/>
<polygon fill="black" stroke="black" points="752.26,-255.84 742.26,-252.34 747.9,-261.31 752.26,-255.84"/>
</g>
<!-- N19 -->
<g id="node20" class="node">
<title>N19</title>
<polygon fill="none" stroke="black" points="880.5,-252 826.5,-252 826.5,-216 880.5,-216 880.5,-252"/>
<text text-anchor="middle" x="853.5" y="-230.3" font-family="Times New Roman,serif" font-size="14.00">st2</text>
</g>
<!-- N17&#45;&gt;N19 -->
<g id="edge14" class="edge">
<title>N17&#45;&gt;N19</title>
<path fill="none" stroke="black" d="M853.5,-323.97C853.5,-307.38 853.5,-281.88 853.5,-262.43"/>
<polygon fill="black" stroke="black" points="857,-262.34 853.5,-252.34 850,-262.34 857,-262.34"/>
</g>
<!-- N21 -->
<g id="node26" class="node">
<title>N21</title>
<polygon fill="none" stroke="black" points="1125.5,-360 1071.5,-360 1071.5,-324 1125.5,-324 1125.5,-360"/>
<text text-anchor="middle" x="1098.5" y="-338.3" font-family="Times New Roman,serif" font-size="14.00"> = </text>
</g>
<!-- N20&#45;&gt;N21 -->
<g id="edge20" class="edge">
<title>N20&#45;&gt;N21</title>
<path fill="none" stroke="black" d="M1098.5,-431.97C1098.5,-415.38 1098.5,-389.88 1098.5,-370.43"/>
<polygon fill="black" stroke="black" points="1102,-370.34 1098.5,-360.34 1095,-370.34 1102,-370.34"/>
</g>
<!-- N26 -->
<g id="node28" class="node">
<title>N26</title>
<polygon fill="none" stroke="black" points="1255.5,-360 1201.5,-360 1201.5,-324 1255.5,-324 1255.5,-360"/>
<text text-anchor="middle" x="1228.5" y="-338.3" font-family="Times New Roman,serif" font-size="14.00">return</text>
</g>
<!-- N20&#45;&gt;N26 -->
<g id="edge22" class="edge">
<title>N20&#45;&gt;N26</title>
<path fill="none" stroke="black" d="M1119.39,-431.97C1141.05,-414.3 1175.1,-386.54 1199.4,-366.73"/>
<polygon fill="black" stroke="black" points="1201.69,-369.37 1207.23,-360.34 1197.27,-363.95 1201.69,-369.37"/>
</g>
<!-- N23 -->
<g id="node22" class="node">
<title>N23</title>
<polygon fill="none" stroke="black" points="943.5,-144 889.5,-144 889.5,-108 943.5,-108 943.5,-144"/>
<text text-anchor="middle" x="916.5" y="-122.3" font-family="Times New Roman,serif" font-size="14.00">st1</text>
</g>
<!-- N24 -->
<g id="node23" class="node">
<title>N24</title>
<polygon fill="none" stroke="black" points="1069.5,-144 1015.5,-144 1015.5,-108 1069.5,-108 1069.5,-144"/>
<text text-anchor="middle" x="1042.5" y="-122.3" font-family="Times New Roman,serif" font-size="14.00">a</text>
</g>
<!-- N22 -->
<g id="node24" class="node">
<title>N22</title>
<polygon fill="none" stroke="black" points="1006.5,-252 952.5,-252 952.5,-216 1006.5,-216 1006.5,-252"/>
<text text-anchor="middle" x="979.5" y="-230.3" font-family="Times New Roman,serif" font-size="14.00"> &#45;&#45;&gt; </text>
</g>
<!-- N22&#45;&gt;N23 -->
<g id="edge16" class="edge">
<title>N22&#45;&gt;N23</title>
<path fill="none" stroke="black" d="M969.38,-215.97C959.29,-198.99 943.66,-172.7 932.01,-153.09"/>
<polygon fill="black" stroke="black" points="934.92,-151.15 926.81,-144.34 928.91,-154.73 934.92,-151.15"/>
</g>
<!-- N22&#45;&gt;N24 -->
<g id="edge17" class="edge">
<title>N22&#45;&gt;N24</title>
<path fill="none" stroke="black" d="M989.62,-215.97C999.71,-198.99 1015.34,-172.7 1026.99,-153.09"/>
<polygon fill="black" stroke="black" points="1030.09,-154.73 1032.19,-144.34 1024.08,-151.15 1030.09,-154.73"/>
</g>
<!-- N25 -->
<g id="node25" class="node">
<title>N25</title>
<polygon fill="none" stroke="black" points="1132.5,-252 1078.5,-252 1078.5,-216 1132.5,-216 1132.5,-252"/>
<text text-anchor="middle" x="1105.5" y="-230.3" font-family="Times New Roman,serif" font-size="14.00">1</text>
</g>
<!-- N21&#45;&gt;N22 -->
<g id="edge18" class="edge">
<title>N21&#45;&gt;N22</title>
<path fill="none" stroke="black" d="M1079.38,-323.97C1059.72,-306.46 1028.92,-279.02 1006.72,-259.25"/>
<polygon fill="black" stroke="black" points="1008.76,-256.38 998.97,-252.34 1004.11,-261.61 1008.76,-256.38"/>
</g>
<!-- N21&#45;&gt;N25 -->
<g id="edge19" class="edge">
<title>N21&#45;&gt;N25</title>
<path fill="none" stroke="black" d="M1099.62,-323.97C1100.72,-307.38 1102.4,-281.88 1103.69,-262.43"/>
<polygon fill="black" stroke="black" points="1107.19,-262.55 1104.35,-252.34 1100.2,-262.09 1107.19,-262.55"/>
</g>
<!-- N27 -->
<g id="node27" class="node">
<title>N27</title>
<polygon fill="none" stroke="black" points="1258.5,-252 1204.5,-252 1204.5,-216 1258.5,-216 1258.5,-252"/>
<text text-anchor="middle" x="1231.5" y="-230.3" font-family="Times New Roman,serif" font-size="14.00">st1</text>
</g>
<!-- N26&#45;&gt;N27 -->
<g id="edge21" class="edge">
<title>N26&#45;&gt;N27</title>
<path fill="none" stroke="black" d="M1228.98,-323.97C1229.45,-307.38 1230.17,-281.88 1230.72,-262.43"/>
<polygon fill="black" stroke="black" points="1234.22,-262.44 1231.01,-252.34 1227.23,-262.24 1234.22,-262.44"/>
</g>
<!-- N29 -->
<g id="node30" class="node">
<title>N29</title>
<polygon fill="none" stroke="black" points="1514.5,-468 1460.5,-468 1460.5,-432 1514.5,-432 1514.5,-468"/>
<text text-anchor="middle" x="1487.5" y="-446.3" font-family="Times New Roman,serif" font-size="14.00">int</text>
</g>
<!-- N28&#45;&gt;N29 -->
<g id="edge59" class="edge">
<title>N28&#45;&gt;N29</title>
<path fill="none" stroke="black" d="M1593.26,-539.97C1572.35,-522.38 1539.54,-494.78 1516.01,-474.99"/>
<polygon fill="black" stroke="black" points="1518.02,-472.1 1508.11,-468.34 1513.51,-477.46 1518.02,-472.1"/>
</g>
<!-- N30 -->
<g id="node31" class="node">
<title>N30</title>
<polygon fill="none" stroke="black" points="1640.5,-468 1586.5,-468 1586.5,-432 1640.5,-432 1640.5,-468"/>
<text text-anchor="middle" x="1613.5" y="-446.3" font-family="Times New Roman,serif" font-size="14.00">main</text>
</g>
<!-- N28&#45;&gt;N30 -->
<g id="edge60" class="edge">
<title>N28&#45;&gt;N30</title>
<path fill="none" stroke="black" d="M1613.5,-539.97C1613.5,-523.38 1613.5,-497.88 1613.5,-478.43"/>
<polygon fill="black" stroke="black" points="1617,-478.34 1613.5,-468.34 1610,-478.34 1617,-478.34"/>
</g>
<!-- N31 -->
<g id="node32" class="node">
<title>N31</title>
<polygon fill="none" stroke="black" points="1790.5,-468 1712.5,-468 1712.5,-432 1790.5,-432 1790.5,-468"/>
<text text-anchor="middle" x="1751.5" y="-446.3" font-family="Times New Roman,serif" font-size="14.00">Parameters</text>
</g>
<!-- N28&#45;&gt;N31 -->
<g id="edge61" class="edge">
<title>N28&#45;&gt;N31</title>
<path fill="none" stroke="black" d="M1635.67,-539.97C1658.77,-522.23 1695.13,-494.3 1720.94,-474.47"/>
<polygon fill="black" stroke="black" points="1723.13,-477.21 1728.92,-468.34 1718.86,-471.66 1723.13,-477.21"/>
</g>
<!-- N32 -->
<g id="node33" class="node">
<title>N32</title>
<polygon fill="none" stroke="black" points="2114.5,-468 2060.5,-468 2060.5,-432 2114.5,-432 2114.5,-468"/>
<text text-anchor="middle" x="2087.5" y="-446.3" font-family="Times New Roman,serif" font-size="14.00">Bloc</text>
</g>
<!-- N28&#45;&gt;N32 -->
<g id="edge62" class="edge">
<title>N28&#45;&gt;N32</title>
<path fill="none" stroke="black" d="M1647.59,-549.38C1733.96,-530.06 1960.88,-479.32 2050.41,-459.29"/>
<polygon fill="black" stroke="black" points="2051.39,-462.66 2060.38,-457.06 2049.86,-455.83 2051.39,-462.66"/>
</g>
<!-- N33 -->
<g id="node34" class="node">
<title>N33</title>
<polygon fill="none" stroke="black" points="1524.5,-360 1470.5,-360 1470.5,-324 1524.5,-324 1524.5,-360"/>
<text text-anchor="middle" x="1497.5" y="-338.3" font-family="Times New Roman,serif" font-size="14.00">Var</text>
</g>
<!-- N32&#45;&gt;N33 -->
<g id="edge30" class="edge">
<title>N32&#45;&gt;N33</title>
<path fill="none" stroke="black" d="M2060.23,-444.1C1964.61,-426.92 1644.49,-369.41 1534.77,-349.7"/>
<polygon fill="black" stroke="black" points="1535.28,-346.23 1524.82,-347.91 1534.05,-353.12 1535.28,-346.23"/>
</g>
<!-- N36 -->
<g id="node37" class="node">
<title>N36</title>
<polygon fill="none" stroke="black" points="1790.5,-360 1736.5,-360 1736.5,-324 1790.5,-324 1790.5,-360"/>
<text text-anchor="middle" x="1763.5" y="-338.3" font-family="Times New Roman,serif" font-size="14.00">Var</text>
</g>
<!-- N32&#45;&gt;N36 -->
<g id="edge33" class="edge">
<title>N32&#45;&gt;N36</title>
<path fill="none" stroke="black" d="M2060.43,-440.14C2002.42,-421.17 1866.06,-376.55 1800.27,-355.03"/>
<polygon fill="black" stroke="black" points="1801.31,-351.69 1790.72,-351.9 1799.13,-358.34 1801.31,-351.69"/>
</g>
<!-- N39 -->
<g id="node45" class="node">
<title>N39</title>
<polygon fill="none" stroke="black" points="2048.5,-360 1994.5,-360 1994.5,-324 2048.5,-324 2048.5,-360"/>
<text text-anchor="middle" x="2021.5" y="-338.3" font-family="Times New Roman,serif" font-size="14.00"> = </text>
</g>
<!-- N32&#45;&gt;N39 -->
<g id="edge39" class="edge">
<title>N32&#45;&gt;N39</title>
<path fill="none" stroke="black" d="M2076.9,-431.97C2066.33,-414.99 2049.95,-388.7 2037.74,-369.09"/>
<polygon fill="black" stroke="black" points="2040.55,-366.98 2032.3,-360.34 2034.61,-370.68 2040.55,-366.98"/>
</g>
<!-- N45 -->
<g id="node51" class="node">
<title>N45</title>
<polygon fill="none" stroke="black" points="2180.5,-360 2126.5,-360 2126.5,-324 2180.5,-324 2180.5,-360"/>
<text text-anchor="middle" x="2153.5" y="-338.3" font-family="Times New Roman,serif" font-size="14.00"> = </text>
</g>
<!-- N32&#45;&gt;N45 -->
<g id="edge45" class="edge">
<title>N32&#45;&gt;N45</title>
<path fill="none" stroke="black" d="M2098.1,-431.97C2108.67,-414.99 2125.05,-388.7 2137.26,-369.09"/>
<polygon fill="black" stroke="black" points="2140.39,-370.68 2142.7,-360.34 2134.45,-366.98 2140.39,-370.68"/>
</g>
<!-- N51 -->
<g id="node57" class="node">
<title>N51</title>
<polygon fill="none" stroke="black" points="2444.5,-360 2390.5,-360 2390.5,-324 2444.5,-324 2444.5,-360"/>
<text text-anchor="middle" x="2417.5" y="-338.3" font-family="Times New Roman,serif" font-size="14.00"> = </text>
</g>
<!-- N32&#45;&gt;N51 -->
<g id="edge51" class="edge">
<title>N32&#45;&gt;N51</title>
<path fill="none" stroke="black" d="M2114.51,-440.33C2173.36,-421.42 2313.3,-376.47 2380.39,-354.92"/>
<polygon fill="black" stroke="black" points="2381.67,-358.18 2390.12,-351.79 2379.53,-351.52 2381.67,-358.18"/>
</g>
<!-- N57 -->
<g id="node59" class="node">
<title>N57</title>
<polygon fill="none" stroke="black" points="2714.5,-360 2648.5,-360 2648.5,-324 2714.5,-324 2714.5,-360"/>
<text text-anchor="middle" x="2681.5" y="-338.3" font-family="Times New Roman,serif" font-size="14.00">Function</text>
</g>
<!-- N32&#45;&gt;N57 -->
<g id="edge56" class="edge">
<title>N32&#45;&gt;N57</title>
<path fill="none" stroke="black" d="M2114.57,-444.17C2208.75,-427.36 2522.69,-371.34 2638.29,-350.71"/>
<polygon fill="black" stroke="black" points="2638.97,-354.14 2648.2,-348.94 2637.74,-347.25 2638.97,-354.14"/>
</g>
<!-- N62 -->
<g id="node64" class="node">
<title>N62</title>
<polygon fill="none" stroke="black" points="2900.5,-360 2846.5,-360 2846.5,-324 2900.5,-324 2900.5,-360"/>
<text text-anchor="middle" x="2873.5" y="-338.3" font-family="Times New Roman,serif" font-size="14.00">return</text>
</g>
<!-- N32&#45;&gt;N62 -->
<g id="edge58" class="edge">
<title>N32&#45;&gt;N62</title>
<path fill="none" stroke="black" d="M2114.66,-445.39C2205.01,-433.39 2503.67,-393.62 2750.5,-360 2779.28,-356.08 2811.84,-351.58 2836.23,-348.19"/>
<polygon fill="black" stroke="black" points="2836.72,-351.65 2846.15,-346.81 2835.76,-344.72 2836.72,-351.65"/>
</g>
<!-- N34 -->
<g id="node35" class="node">
<title>N34</title>
<polygon fill="none" stroke="black" points="1398,-252 1331,-252 1331,-216 1398,-216 1398,-252"/>
<text text-anchor="middle" x="1364.5" y="-230.3" font-family="Times New Roman,serif" font-size="14.00">struct S1</text>
</g>
<!-- N33&#45;&gt;N34 -->
<g id="edge28" class="edge">
<title>N33&#45;&gt;N34</title>
<path fill="none" stroke="black" d="M1476.13,-323.97C1453.96,-306.3 1419.13,-278.54 1394.27,-258.73"/>
<polygon fill="black" stroke="black" points="1396.26,-255.84 1386.26,-252.34 1391.9,-261.31 1396.26,-255.84"/>
</g>
<!-- N35 -->
<g id="node36" class="node">
<title>N35</title>
<polygon fill="none" stroke="black" points="1524.5,-252 1470.5,-252 1470.5,-216 1524.5,-216 1524.5,-252"/>
<text text-anchor="middle" x="1497.5" y="-230.3" font-family="Times New Roman,serif" font-size="14.00">abc1</text>
</g>
<!-- N33&#45;&gt;N35 -->
<g id="edge29" class="edge">
<title>N33&#45;&gt;N35</title>
<path fill="none" stroke="black" d="M1497.5,-323.97C1497.5,-307.38 1497.5,-281.88 1497.5,-262.43"/>
<polygon fill="black" stroke="black" points="1501,-262.34 1497.5,-252.34 1494,-262.34 1501,-262.34"/>
</g>
<!-- N37 -->
<g id="node38" class="node">
<title>N37</title>
<polygon fill="none" stroke="black" points="1664,-252 1597,-252 1597,-216 1664,-216 1664,-252"/>
<text text-anchor="middle" x="1630.5" y="-230.3" font-family="Times New Roman,serif" font-size="14.00">struct S2</text>
</g>
<!-- N36&#45;&gt;N37 -->
<g id="edge31" class="edge">
<title>N36&#45;&gt;N37</title>
<path fill="none" stroke="black" d="M1742.13,-323.97C1719.96,-306.3 1685.13,-278.54 1660.27,-258.73"/>
<polygon fill="black" stroke="black" points="1662.26,-255.84 1652.26,-252.34 1657.9,-261.31 1662.26,-255.84"/>
</g>
<!-- N38 -->
<g id="node39" class="node">
<title>N38</title>
<polygon fill="none" stroke="black" points="1790.5,-252 1736.5,-252 1736.5,-216 1790.5,-216 1790.5,-252"/>
<text text-anchor="middle" x="1763.5" y="-230.3" font-family="Times New Roman,serif" font-size="14.00">abc2</text>
</g>
<!-- N36&#45;&gt;N38 -->
<g id="edge32" class="edge">
<title>N36&#45;&gt;N38</title>
<path fill="none" stroke="black" d="M1763.5,-323.97C1763.5,-307.38 1763.5,-281.88 1763.5,-262.43"/>
<polygon fill="black" stroke="black" points="1767,-262.34 1763.5,-252.34 1760,-262.34 1767,-262.34"/>
</g>
<!-- N40 -->
<g id="node40" class="node">
<title>N40</title>
<polygon fill="none" stroke="black" points="1916.5,-252 1862.5,-252 1862.5,-216 1916.5,-216 1916.5,-252"/>
<text text-anchor="middle" x="1889.5" y="-230.3" font-family="Times New Roman,serif" font-size="14.00">abc1</text>
</g>
<!-- N42 -->
<g id="node41" class="node">
<title>N42</title>
<polygon fill="none" stroke="black" points="1928.5,-144 1874.5,-144 1874.5,-108 1928.5,-108 1928.5,-144"/>
<text text-anchor="middle" x="1901.5" y="-122.3" font-family="Times New Roman,serif" font-size="14.00">malloc</text>
</g>
<!-- N41 -->
<g id="node42" class="node">
<title>N41</title>
<polygon fill="none" stroke="black" points="2054.5,-252 1988.5,-252 1988.5,-216 2054.5,-216 2054.5,-252"/>
<text text-anchor="middle" x="2021.5" y="-230.3" font-family="Times New Roman,serif" font-size="14.00">Function</text>
</g>
<!-- N41&#45;&gt;N42 -->
<g id="edge34" class="edge">
<title>N41&#45;&gt;N42</title>
<path fill="none" stroke="black" d="M2002.22,-215.97C1982.31,-198.38 1951.06,-170.78 1928.66,-150.99"/>
<polygon fill="black" stroke="black" points="1930.94,-148.34 1921.13,-144.34 1926.31,-153.58 1930.94,-148.34"/>
</g>
<!-- N43 -->
<g id="node44" class="node">
<title>N43</title>
<polygon fill="none" stroke="black" points="2054.5,-144 2000.5,-144 2000.5,-108 2054.5,-108 2054.5,-144"/>
<text text-anchor="middle" x="2027.5" y="-122.3" font-family="Times New Roman,serif" font-size="14.00">sizeof</text>
</g>
<!-- N41&#45;&gt;N43 -->
<g id="edge36" class="edge">
<title>N41&#45;&gt;N43</title>
<path fill="none" stroke="black" d="M2022.46,-215.97C2023.4,-199.38 2024.85,-173.88 2025.95,-154.43"/>
<polygon fill="black" stroke="black" points="2029.45,-154.52 2026.52,-144.34 2022.46,-154.13 2029.45,-154.52"/>
</g>
<!-- N44 -->
<g id="node43" class="node">
<title>N44</title>
<polygon fill="none" stroke="black" points="2054.5,-36 2000.5,-36 2000.5,0 2054.5,0 2054.5,-36"/>
<text text-anchor="middle" x="2027.5" y="-14.3" font-family="Times New Roman,serif" font-size="14.00">S1</text>
</g>
<!-- N43&#45;&gt;N44 -->
<g id="edge35" class="edge">
<title>N43&#45;&gt;N44</title>
<path fill="none" stroke="black" d="M2027.5,-107.97C2027.5,-91.38 2027.5,-65.88 2027.5,-46.43"/>
<polygon fill="black" stroke="black" points="2031,-46.34 2027.5,-36.34 2024,-46.34 2031,-46.34"/>
</g>
<!-- N39&#45;&gt;N40 -->
<g id="edge37" class="edge">
<title>N39&#45;&gt;N40</title>
<path fill="none" stroke="black" d="M2000.29,-323.97C1978.29,-306.3 1943.72,-278.54 1919.05,-258.73"/>
<polygon fill="black" stroke="black" points="1921.08,-255.87 1911.09,-252.34 1916.7,-261.33 1921.08,-255.87"/>
</g>
<!-- N39&#45;&gt;N41 -->
<g id="edge38" class="edge">
<title>N39&#45;&gt;N41</title>
<path fill="none" stroke="black" d="M2021.5,-323.97C2021.5,-307.38 2021.5,-281.88 2021.5,-262.43"/>
<polygon fill="black" stroke="black" points="2025,-262.34 2021.5,-252.34 2018,-262.34 2025,-262.34"/>
</g>
<!-- N46 -->
<g id="node46" class="node">
<title>N46</title>
<polygon fill="none" stroke="black" points="2180.5,-252 2126.5,-252 2126.5,-216 2180.5,-216 2180.5,-252"/>
<text text-anchor="middle" x="2153.5" y="-230.3" font-family="Times New Roman,serif" font-size="14.00">abc2</text>
</g>
<!-- N48 -->
<g id="node47" class="node">
<title>N48</title>
<polygon fill="none" stroke="black" points="2192.5,-144 2138.5,-144 2138.5,-108 2192.5,-108 2192.5,-144"/>
<text text-anchor="middle" x="2165.5" y="-122.3" font-family="Times New Roman,serif" font-size="14.00">malloc</text>
</g>
<!-- N47 -->
<g id="node48" class="node">
<title>N47</title>
<polygon fill="none" stroke="black" points="2318.5,-252 2252.5,-252 2252.5,-216 2318.5,-216 2318.5,-252"/>
<text text-anchor="middle" x="2285.5" y="-230.3" font-family="Times New Roman,serif" font-size="14.00">Function</text>
</g>
<!-- N47&#45;&gt;N48 -->
<g id="edge40" class="edge">
<title>N47&#45;&gt;N48</title>
<path fill="none" stroke="black" d="M2266.22,-215.97C2246.31,-198.38 2215.06,-170.78 2192.66,-150.99"/>
<polygon fill="black" stroke="black" points="2194.94,-148.34 2185.13,-144.34 2190.31,-153.58 2194.94,-148.34"/>
</g>
<!-- N49 -->
<g id="node50" class="node">
<title>N49</title>
<polygon fill="none" stroke="black" points="2318.5,-144 2264.5,-144 2264.5,-108 2318.5,-108 2318.5,-144"/>
<text text-anchor="middle" x="2291.5" y="-122.3" font-family="Times New Roman,serif" font-size="14.00">sizeof</text>
</g>
<!-- N47&#45;&gt;N49 -->
<g id="edge42" class="edge">
<title>N47&#45;&gt;N49</title>
<path fill="none" stroke="black" d="M2286.46,-215.97C2287.4,-199.38 2288.85,-173.88 2289.95,-154.43"/>
<polygon fill="black" stroke="black" points="2293.45,-154.52 2290.52,-144.34 2286.46,-154.13 2293.45,-154.52"/>
</g>
<!-- N50 -->
<g id="node49" class="node">
<title>N50</title>
<polygon fill="none" stroke="black" points="2318.5,-36 2264.5,-36 2264.5,0 2318.5,0 2318.5,-36"/>
<text text-anchor="middle" x="2291.5" y="-14.3" font-family="Times New Roman,serif" font-size="14.00">S2</text>
</g>
<!-- N49&#45;&gt;N50 -->
<g id="edge41" class="edge">
<title>N49&#45;&gt;N50</title>
<path fill="none" stroke="black" d="M2291.5,-107.97C2291.5,-91.38 2291.5,-65.88 2291.5,-46.43"/>
<polygon fill="black" stroke="black" points="2295,-46.34 2291.5,-36.34 2288,-46.34 2295,-46.34"/>
</g>
<!-- N45&#45;&gt;N46 -->
<g id="edge43" class="edge">
<title>N45&#45;&gt;N46</title>
<path fill="none" stroke="black" d="M2153.5,-323.97C2153.5,-307.38 2153.5,-281.88 2153.5,-262.43"/>
<polygon fill="black" stroke="black" points="2157,-262.34 2153.5,-252.34 2150,-262.34 2157,-262.34"/>
</g>
<!-- N45&#45;&gt;N47 -->
<g id="edge44" class="edge">
<title>N45&#45;&gt;N47</title>
<path fill="none" stroke="black" d="M2174.71,-323.97C2196.71,-306.3 2231.28,-278.54 2255.95,-258.73"/>
<polygon fill="black" stroke="black" points="2258.3,-261.33 2263.91,-252.34 2253.92,-255.87 2258.3,-261.33"/>
</g>
<!-- N52 -->
<g id="node52" class="node">
<title>N52</title>
<polygon fill="none" stroke="black" points="2444.5,-252 2390.5,-252 2390.5,-216 2444.5,-216 2444.5,-252"/>
<text text-anchor="middle" x="2417.5" y="-230.3" font-family="Times New Roman,serif" font-size="14.00">abc1</text>
</g>
<!-- N54 -->
<g id="node53" class="node">
<title>N54</title>
<polygon fill="none" stroke="black" points="2450.5,-144 2396.5,-144 2396.5,-108 2450.5,-108 2450.5,-144"/>
<text text-anchor="middle" x="2423.5" y="-122.3" font-family="Times New Roman,serif" font-size="14.00">fctS</text>
</g>
<!-- N53 -->
<g id="node54" class="node">
<title>N53</title>
<polygon fill="none" stroke="black" points="2582.5,-252 2516.5,-252 2516.5,-216 2582.5,-216 2582.5,-252"/>
<text text-anchor="middle" x="2549.5" y="-230.3" font-family="Times New Roman,serif" font-size="14.00">Function</text>
</g>
<!-- N53&#45;&gt;N54 -->
<g id="edge46" class="edge">
<title>N53&#45;&gt;N54</title>
<path fill="none" stroke="black" d="M2529.26,-215.97C2508.35,-198.38 2475.54,-170.78 2452.01,-150.99"/>
<polygon fill="black" stroke="black" points="2454.02,-148.1 2444.11,-144.34 2449.51,-153.46 2454.02,-148.1"/>
</g>
<!-- N55 -->
<g id="node55" class="node">
<title>N55</title>
<polygon fill="none" stroke="black" points="2576.5,-144 2522.5,-144 2522.5,-108 2576.5,-108 2576.5,-144"/>
<text text-anchor="middle" x="2549.5" y="-122.3" font-family="Times New Roman,serif" font-size="14.00">abc1</text>
</g>
<!-- N53&#45;&gt;N55 -->
<g id="edge47" class="edge">
<title>N53&#45;&gt;N55</title>
<path fill="none" stroke="black" d="M2549.5,-215.97C2549.5,-199.38 2549.5,-173.88 2549.5,-154.43"/>
<polygon fill="black" stroke="black" points="2553,-154.34 2549.5,-144.34 2546,-154.34 2553,-154.34"/>
</g>
<!-- N56 -->
<g id="node56" class="node">
<title>N56</title>
<polygon fill="none" stroke="black" points="2702.5,-144 2648.5,-144 2648.5,-108 2702.5,-108 2702.5,-144"/>
<text text-anchor="middle" x="2675.5" y="-122.3" font-family="Times New Roman,serif" font-size="14.00">abc2</text>
</g>
<!-- N53&#45;&gt;N56 -->
<g id="edge48" class="edge">
<title>N53&#45;&gt;N56</title>
<path fill="none" stroke="black" d="M2569.74,-215.97C2590.65,-198.38 2623.46,-170.78 2646.99,-150.99"/>
<polygon fill="black" stroke="black" points="2649.49,-153.46 2654.89,-144.34 2644.98,-148.1 2649.49,-153.46"/>
</g>
<!-- N51&#45;&gt;N52 -->
<g id="edge49" class="edge">
<title>N51&#45;&gt;N52</title>
<path fill="none" stroke="black" d="M2417.5,-323.97C2417.5,-307.38 2417.5,-281.88 2417.5,-262.43"/>
<polygon fill="black" stroke="black" points="2421,-262.34 2417.5,-252.34 2414,-262.34 2421,-262.34"/>
</g>
<!-- N51&#45;&gt;N53 -->
<g id="edge50" class="edge">
<title>N51&#45;&gt;N53</title>
<path fill="none" stroke="black" d="M2438.71,-323.97C2460.71,-306.3 2495.28,-278.54 2519.95,-258.73"/>
<polygon fill="black" stroke="black" points="2522.3,-261.33 2527.91,-252.34 2517.92,-255.87 2522.3,-261.33"/>
</g>
<!-- N58 -->
<g id="node58" class="node">
<title>N58</title>
<polygon fill="none" stroke="black" points="2708.5,-252 2654.5,-252 2654.5,-216 2708.5,-216 2708.5,-252"/>
<text text-anchor="middle" x="2681.5" y="-230.3" font-family="Times New Roman,serif" font-size="14.00">print</text>
</g>
<!-- N57&#45;&gt;N58 -->
<g id="edge52" class="edge">
<title>N57&#45;&gt;N58</title>
<path fill="none" stroke="black" d="M2681.5,-323.97C2681.5,-307.38 2681.5,-281.88 2681.5,-262.43"/>
<polygon fill="black" stroke="black" points="2685,-262.34 2681.5,-252.34 2678,-262.34 2685,-262.34"/>
</g>
<!-- N59 -->
<g id="node62" class="node">
<title>N59</title>
<polygon fill="none" stroke="black" points="2834.5,-252 2780.5,-252 2780.5,-216 2834.5,-216 2834.5,-252"/>
<text text-anchor="middle" x="2807.5" y="-230.3" font-family="Times New Roman,serif" font-size="14.00"> &#45;&#45;&gt; </text>
</g>
<!-- N57&#45;&gt;N59 -->
<g id="edge55" class="edge">
<title>N57&#45;&gt;N59</title>
<path fill="none" stroke="black" d="M2701.74,-323.97C2722.65,-306.38 2755.46,-278.78 2778.99,-258.99"/>
<polygon fill="black" stroke="black" points="2781.49,-261.46 2786.89,-252.34 2776.98,-256.1 2781.49,-261.46"/>
</g>
<!-- N60 -->
<g id="node60" class="node">
<title>N60</title>
<polygon fill="none" stroke="black" points="2831.5,-144 2777.5,-144 2777.5,-108 2831.5,-108 2831.5,-144"/>
<text text-anchor="middle" x="2804.5" y="-122.3" font-family="Times New Roman,serif" font-size="14.00">abc1</text>
</g>
<!-- N61 -->
<g id="node61" class="node">
<title>N61</title>
<polygon fill="none" stroke="black" points="2957.5,-144 2903.5,-144 2903.5,-108 2957.5,-108 2957.5,-144"/>
<text text-anchor="middle" x="2930.5" y="-122.3" font-family="Times New Roman,serif" font-size="14.00">a</text>
</g>
<!-- N59&#45;&gt;N60 -->
<g id="edge53" class="edge">
<title>N59&#45;&gt;N60</title>
<path fill="none" stroke="black" d="M2807.02,-215.97C2806.55,-199.38 2805.83,-173.88 2805.28,-154.43"/>
<polygon fill="black" stroke="black" points="2808.77,-154.24 2804.99,-144.34 2801.78,-154.44 2808.77,-154.24"/>
</g>
<!-- N59&#45;&gt;N61 -->
<g id="edge54" class="edge">
<title>N59&#45;&gt;N61</title>
<path fill="none" stroke="black" d="M2827.26,-215.97C2847.67,-198.38 2879.7,-170.78 2902.67,-150.99"/>
<polygon fill="black" stroke="black" points="2905.09,-153.52 2910.38,-144.34 2900.52,-148.22 2905.09,-153.52"/>
</g>
<!-- N63 -->
<g id="node63" class="node">
<title>N63</title>
<polygon fill="none" stroke="black" points="2960.5,-252 2906.5,-252 2906.5,-216 2960.5,-216 2960.5,-252"/>
<text text-anchor="middle" x="2933.5" y="-230.3" font-family="Times New Roman,serif" font-size="14.00">0</text>
</g>
<!-- N62&#45;&gt;N63 -->
<g id="edge57" class="edge">
<title>N62&#45;&gt;N63</title>
<path fill="none" stroke="black" d="M2883.14,-323.97C2892.75,-306.99 2907.63,-280.7 2918.73,-261.09"/>
<polygon fill="black" stroke="black" points="2921.8,-262.77 2923.68,-252.34 2915.71,-259.32 2921.8,-262.77"/>
</g>
</g>
</svg>
