<?xml version="1.0" encoding="UTF-8" standalone="no"?>
<!DOCTYPE svg PUBLIC "-//W3C//DTD SVG 1.1//EN"
 "http://www.w3.org/Graphics/SVG/1.1/DTD/svg11.dtd">
<!-- Generated by graphviz version 2.49.3 (20211023.0002)
 -->
<!-- Title: ast Pages: 1 -->
<svg width="1586pt" height="584pt"
 viewBox="0.00 0.00 1586.00 584.00" xmlns="http://www.w3.org/2000/svg" xmlns:xlink="http://www.w3.org/1999/xlink">
<g id="graph0" class="graph" transform="scale(1 1) rotate(0) translate(4 580)">
<title>ast</title>
<polygon fill="white" stroke="transparent" points="-4,4 -4,-580 1582,-580 1582,4 -4,4"/>
<!-- N0 -->
<g id="node1" class="node">
<title>N0</title>
<polygon fill="none" stroke="black" points="841.5,-576 776.5,-576 776.5,-540 841.5,-540 841.5,-576"/>
<text text-anchor="middle" x="809" y="-554.3" font-family="Times New Roman,serif" font-size="14.00">Program</text>
</g>
<!-- N1 -->
<g id="node2" class="node">
<title>N1</title>
<polygon fill="none" stroke="black" points="717,-468 649,-468 649,-432 717,-432 717,-468"/>
<text text-anchor="middle" x="683" y="-446.3" font-family="Times New Roman,serif" font-size="14.00">Decl_Fct</text>
</g>
<!-- N0&#45;&gt;N1 -->
<g id="edge19" class="edge">
<title>N0&#45;&gt;N1</title>
<path fill="none" stroke="black" d="M788.76,-539.97C767.85,-522.38 735.04,-494.78 711.51,-474.99"/>
<polygon fill="black" stroke="black" points="713.52,-472.1 703.61,-468.34 709.01,-477.46 713.52,-472.1"/>
</g>
<!-- N19 -->
<g id="node21" class="node">
<title>N19</title>
<polygon fill="none" stroke="black" points="969,-468 901,-468 901,-432 969,-432 969,-468"/>
<text text-anchor="middle" x="935" y="-446.3" font-family="Times New Roman,serif" font-size="14.00">Decl_Fct</text>
</g>
<!-- N0&#45;&gt;N19 -->
<g id="edge33" class="edge">
<title>N0&#45;&gt;N19</title>
<path fill="none" stroke="black" d="M829.24,-539.97C850.15,-522.38 882.96,-494.78 906.49,-474.99"/>
<polygon fill="black" stroke="black" points="908.99,-477.46 914.39,-468.34 904.48,-472.1 908.99,-477.46"/>
</g>
<!-- int -->
<g id="node3" class="node">
<title>int</title>
<polygon fill="none" stroke="black" points="836,-360 782,-360 782,-324 836,-324 836,-360"/>
<text text-anchor="middle" x="809" y="-338.3" font-family="Times New Roman,serif" font-size="14.00">int</text>
</g>
<!-- N1&#45;&gt;int -->
<g id="edge15" class="edge">
<title>N1&#45;&gt;int</title>
<path fill="none" stroke="black" d="M703.24,-431.97C724.15,-414.38 756.96,-386.78 780.49,-366.99"/>
<polygon fill="black" stroke="black" points="782.99,-369.46 788.39,-360.34 778.48,-364.1 782.99,-369.46"/>
</g>
<!-- N2 -->
<g id="node4" class="node">
<title>N2</title>
<polygon fill="none" stroke="black" points="434,-360 380,-360 380,-324 434,-324 434,-360"/>
<text text-anchor="middle" x="407" y="-338.3" font-family="Times New Roman,serif" font-size="14.00">fct</text>
</g>
<!-- N1&#45;&gt;N2 -->
<g id="edge16" class="edge">
<title>N1&#45;&gt;N2</title>
<path fill="none" stroke="black" d="M648.88,-435.9C596.61,-415.82 497.13,-377.62 443.48,-357.01"/>
<polygon fill="black" stroke="black" points="444.6,-353.69 434.01,-353.38 442.09,-360.23 444.6,-353.69"/>
</g>
<!-- N3 -->
<g id="node5" class="node">
<title>N3</title>
<polygon fill="none" stroke="black" points="584,-360 506,-360 506,-324 584,-324 584,-360"/>
<text text-anchor="middle" x="545" y="-338.3" font-family="Times New Roman,serif" font-size="14.00">Parameters</text>
</g>
<!-- N1&#45;&gt;N3 -->
<g id="edge17" class="edge">
<title>N1&#45;&gt;N3</title>
<path fill="none" stroke="black" d="M660.83,-431.97C637.73,-414.23 601.37,-386.3 575.56,-366.47"/>
<polygon fill="black" stroke="black" points="577.64,-363.66 567.58,-360.34 573.37,-369.21 577.64,-363.66"/>
</g>
<!-- N4 -->
<g id="node6" class="node">
<title>N4</title>
<polygon fill="none" stroke="black" points="710,-360 656,-360 656,-324 710,-324 710,-360"/>
<text text-anchor="middle" x="683" y="-338.3" font-family="Times New Roman,serif" font-size="14.00">Bloc</text>
</g>
<!-- N1&#45;&gt;N4 -->
<g id="edge18" class="edge">
<title>N1&#45;&gt;N4</title>
<path fill="none" stroke="black" d="M683,-431.97C683,-415.38 683,-389.88 683,-370.43"/>
<polygon fill="black" stroke="black" points="686.5,-370.34 683,-360.34 679.5,-370.34 686.5,-370.34"/>
</g>
<!-- N5 -->
<g id="node7" class="node">
<title>N5</title>
<polygon fill="none" stroke="black" points="243,-252 189,-252 189,-216 243,-216 243,-252"/>
<text text-anchor="middle" x="216" y="-230.3" font-family="Times New Roman,serif" font-size="14.00">Var</text>
</g>
<!-- N4&#45;&gt;N5 -->
<g id="edge4" class="edge">
<title>N4&#45;&gt;N5</title>
<path fill="none" stroke="black" d="M655.78,-333.36C644.71,-330.33 631.77,-326.88 620,-324 485.36,-291.02 324.1,-257.18 252.89,-242.52"/>
<polygon fill="black" stroke="black" points="253.55,-239.09 243.05,-240.5 252.14,-245.94 253.55,-239.09"/>
</g>
<!-- N9 -->
<g id="node13" class="node">
<title>N9</title>
<polygon fill="none" stroke="black" points="558,-252 504,-252 504,-216 558,-216 558,-252"/>
<text text-anchor="middle" x="531" y="-230.3" font-family="Times New Roman,serif" font-size="14.00"> = </text>
</g>
<!-- N4&#45;&gt;N9 -->
<g id="edge7" class="edge">
<title>N4&#45;&gt;N9</title>
<path fill="none" stroke="black" d="M658.58,-323.97C632.95,-306.1 592.5,-277.89 564.03,-258.04"/>
<polygon fill="black" stroke="black" points="565.82,-255.01 555.61,-252.16 561.81,-260.76 565.82,-255.01"/>
</g>
<!-- N12 -->
<g id="node16" class="node">
<title>N12</title>
<polygon fill="none" stroke="black" points="710,-252 656,-252 656,-216 710,-216 710,-252"/>
<text text-anchor="middle" x="683" y="-230.3" font-family="Times New Roman,serif" font-size="14.00"> = </text>
</g>
<!-- N4&#45;&gt;N12 -->
<g id="edge10" class="edge">
<title>N4&#45;&gt;N12</title>
<path fill="none" stroke="black" d="M683,-323.97C683,-307.38 683,-281.88 683,-262.43"/>
<polygon fill="black" stroke="black" points="686.5,-262.34 683,-252.34 679.5,-262.34 686.5,-262.34"/>
</g>
<!-- N15 -->
<g id="node20" class="node">
<title>N15</title>
<polygon fill="none" stroke="black" points="899,-252 845,-252 845,-216 899,-216 899,-252"/>
<text text-anchor="middle" x="872" y="-230.3" font-family="Times New Roman,serif" font-size="14.00">return</text>
</g>
<!-- N4&#45;&gt;N15 -->
<g id="edge14" class="edge">
<title>N4&#45;&gt;N15</title>
<path fill="none" stroke="black" d="M710.08,-325.81C743.2,-307.24 799.38,-275.73 836.08,-255.14"/>
<polygon fill="black" stroke="black" points="837.96,-258.1 844.97,-250.16 834.54,-252 837.96,-258.1"/>
</g>
<!-- N6 -->
<g id="node8" class="node">
<title>N6</title>
<polygon fill="none" stroke="black" points="54,-144 0,-144 0,-108 54,-108 54,-144"/>
<text text-anchor="middle" x="27" y="-122.3" font-family="Times New Roman,serif" font-size="14.00">int</text>
</g>
<!-- N5&#45;&gt;N6 -->
<g id="edge1" class="edge">
<title>N5&#45;&gt;N6</title>
<path fill="none" stroke="black" d="M188.92,-217.81C155.8,-199.24 99.62,-167.73 62.92,-147.14"/>
<polygon fill="black" stroke="black" points="64.46,-144 54.03,-142.16 61.04,-150.1 64.46,-144"/>
</g>
<!-- N7 -->
<g id="node9" class="node">
<title>N7</title>
<polygon fill="none" stroke="black" points="180,-144 126,-144 126,-108 180,-108 180,-144"/>
<text text-anchor="middle" x="153" y="-122.3" font-family="Times New Roman,serif" font-size="14.00">a</text>
</g>
<!-- N5&#45;&gt;N7 -->
<g id="edge2" class="edge">
<title>N5&#45;&gt;N7</title>
<path fill="none" stroke="black" d="M205.88,-215.97C195.79,-198.99 180.16,-172.7 168.51,-153.09"/>
<polygon fill="black" stroke="black" points="171.42,-151.15 163.31,-144.34 165.41,-154.73 171.42,-151.15"/>
</g>
<!-- N8 -->
<g id="node10" class="node">
<title>N8</title>
<polygon fill="none" stroke="black" points="306,-144 252,-144 252,-108 306,-108 306,-144"/>
<text text-anchor="middle" x="279" y="-122.3" font-family="Times New Roman,serif" font-size="14.00">b</text>
</g>
<!-- N5&#45;&gt;N8 -->
<g id="edge3" class="edge">
<title>N5&#45;&gt;N8</title>
<path fill="none" stroke="black" d="M226.12,-215.97C236.21,-198.99 251.84,-172.7 263.49,-153.09"/>
<polygon fill="black" stroke="black" points="266.59,-154.73 268.69,-144.34 260.58,-151.15 266.59,-154.73"/>
</g>
<!-- N10 -->
<g id="node11" class="node">
<title>N10</title>
<polygon fill="none" stroke="black" points="432,-144 378,-144 378,-108 432,-108 432,-144"/>
<text text-anchor="middle" x="405" y="-122.3" font-family="Times New Roman,serif" font-size="14.00">a</text>
</g>
<!-- N11 -->
<g id="node12" class="node">
<title>N11</title>
<polygon fill="none" stroke="black" points="558,-144 504,-144 504,-108 558,-108 558,-144"/>
<text text-anchor="middle" x="531" y="-122.3" font-family="Times New Roman,serif" font-size="14.00">49</text>
</g>
<!-- N9&#45;&gt;N10 -->
<g id="edge5" class="edge">
<title>N9&#45;&gt;N10</title>
<path fill="none" stroke="black" d="M510.76,-215.97C489.85,-198.38 457.04,-170.78 433.51,-150.99"/>
<polygon fill="black" stroke="black" points="435.52,-148.1 425.61,-144.34 431.01,-153.46 435.52,-148.1"/>
</g>
<!-- N9&#45;&gt;N11 -->
<g id="edge6" class="edge">
<title>N9&#45;&gt;N11</title>
<path fill="none" stroke="black" d="M531,-215.97C531,-199.38 531,-173.88 531,-154.43"/>
<polygon fill="black" stroke="black" points="534.5,-154.34 531,-144.34 527.5,-154.34 534.5,-154.34"/>
</g>
<!-- N13 -->
<g id="node14" class="node">
<title>N13</title>
<polygon fill="none" stroke="black" points="684,-144 630,-144 630,-108 684,-108 684,-144"/>
<text text-anchor="middle" x="657" y="-122.3" font-family="Times New Roman,serif" font-size="14.00">b</text>
</g>
<!-- N14 -->
<g id="node15" class="node">
<title>N14</title>
<polygon fill="none" stroke="black" points="810,-144 756,-144 756,-108 810,-108 810,-144"/>
<text text-anchor="middle" x="783" y="-122.3" font-family="Times New Roman,serif" font-size="14.00">53</text>
</g>
<!-- N12&#45;&gt;N13 -->
<g id="edge8" class="edge">
<title>N12&#45;&gt;N13</title>
<path fill="none" stroke="black" d="M678.82,-215.97C674.73,-199.3 668.44,-173.65 663.66,-154.16"/>
<polygon fill="black" stroke="black" points="667.03,-153.22 661.25,-144.34 660.24,-154.89 667.03,-153.22"/>
</g>
<!-- N12&#45;&gt;N14 -->
<g id="edge9" class="edge">
<title>N12&#45;&gt;N14</title>
<path fill="none" stroke="black" d="M699.07,-215.97C715.44,-198.61 741.02,-171.5 759.63,-151.77"/>
<polygon fill="black" stroke="black" points="762.32,-154.02 766.64,-144.34 757.23,-149.21 762.32,-154.02"/>
</g>
<!-- N17 -->
<g id="node17" class="node">
<title>N17</title>
<polygon fill="none" stroke="black" points="873,-36 819,-36 819,0 873,0 873,-36"/>
<text text-anchor="middle" x="846" y="-14.3" font-family="Times New Roman,serif" font-size="14.00">a</text>
</g>
<!-- N18 -->
<g id="node18" class="node">
<title>N18</title>
<polygon fill="none" stroke="black" points="999,-36 945,-36 945,0 999,0 999,-36"/>
<text text-anchor="middle" x="972" y="-14.3" font-family="Times New Roman,serif" font-size="14.00">b</text>
</g>
<!-- N16 -->
<g id="node19" class="node">
<title>N16</title>
<polygon fill="none" stroke="black" points="936,-144 882,-144 882,-108 936,-108 936,-144"/>
<text text-anchor="middle" x="909" y="-122.3" font-family="Times New Roman,serif" font-size="14.00">+</text>
</g>
<!-- N16&#45;&gt;N17 -->
<g id="edge11" class="edge">
<title>N16&#45;&gt;N17</title>
<path fill="none" stroke="black" d="M898.88,-107.97C888.79,-90.99 873.16,-64.7 861.51,-45.09"/>
<polygon fill="black" stroke="black" points="864.42,-43.15 856.31,-36.34 858.41,-46.73 864.42,-43.15"/>
</g>
<!-- N16&#45;&gt;N18 -->
<g id="edge12" class="edge">
<title>N16&#45;&gt;N18</title>
<path fill="none" stroke="black" d="M919.12,-107.97C929.21,-90.99 944.84,-64.7 956.49,-45.09"/>
<polygon fill="black" stroke="black" points="959.59,-46.73 961.69,-36.34 953.58,-43.15 959.59,-46.73"/>
</g>
<!-- N15&#45;&gt;N16 -->
<g id="edge13" class="edge">
<title>N15&#45;&gt;N16</title>
<path fill="none" stroke="black" d="M877.94,-215.97C883.79,-199.22 892.8,-173.41 899.61,-153.89"/>
<polygon fill="black" stroke="black" points="902.96,-154.94 902.95,-144.34 896.35,-152.63 902.96,-154.94"/>
</g>
<!-- N19&#45;&gt;int -->
<g id="edge29" class="edge">
<title>N19&#45;&gt;int</title>
<path fill="none" stroke="black" d="M914.76,-431.97C893.85,-414.38 861.04,-386.78 837.51,-366.99"/>
<polygon fill="black" stroke="black" points="839.52,-364.1 829.61,-360.34 835.01,-369.46 839.52,-364.1"/>
</g>
<!-- N20 -->
<g id="node22" class="node">
<title>N20</title>
<polygon fill="none" stroke="black" points="962,-360 908,-360 908,-324 962,-324 962,-360"/>
<text text-anchor="middle" x="935" y="-338.3" font-family="Times New Roman,serif" font-size="14.00">main</text>
</g>
<!-- N19&#45;&gt;N20 -->
<g id="edge30" class="edge">
<title>N19&#45;&gt;N20</title>
<path fill="none" stroke="black" d="M935,-431.97C935,-415.38 935,-389.88 935,-370.43"/>
<polygon fill="black" stroke="black" points="938.5,-370.34 935,-360.34 931.5,-370.34 938.5,-370.34"/>
</g>
<!-- N21 -->
<g id="node23" class="node">
<title>N21</title>
<polygon fill="none" stroke="black" points="1112,-360 1034,-360 1034,-324 1112,-324 1112,-360"/>
<text text-anchor="middle" x="1073" y="-338.3" font-family="Times New Roman,serif" font-size="14.00">Parameters</text>
</g>
<!-- N19&#45;&gt;N21 -->
<g id="edge31" class="edge">
<title>N19&#45;&gt;N21</title>
<path fill="none" stroke="black" d="M957.17,-431.97C980.27,-414.23 1016.63,-386.3 1042.44,-366.47"/>
<polygon fill="black" stroke="black" points="1044.63,-369.21 1050.42,-360.34 1040.36,-363.66 1044.63,-369.21"/>
</g>
<!-- N22 -->
<g id="node24" class="node">
<title>N22</title>
<polygon fill="none" stroke="black" points="1263,-360 1209,-360 1209,-324 1263,-324 1263,-360"/>
<text text-anchor="middle" x="1236" y="-338.3" font-family="Times New Roman,serif" font-size="14.00">Bloc</text>
</g>
<!-- N19&#45;&gt;N22 -->
<g id="edge32" class="edge">
<title>N19&#45;&gt;N22</title>
<path fill="none" stroke="black" d="M969.24,-436.94C1026.33,-416.84 1140.52,-376.62 1199.25,-355.94"/>
<polygon fill="black" stroke="black" points="1200.59,-359.18 1208.86,-352.56 1198.27,-352.58 1200.59,-359.18"/>
</g>
<!-- N23 -->
<g id="node25" class="node">
<title>N23</title>
<polygon fill="none" stroke="black" points="1188,-252 1134,-252 1134,-216 1188,-216 1188,-252"/>
<text text-anchor="middle" x="1161" y="-230.3" font-family="Times New Roman,serif" font-size="14.00">Var</text>
</g>
<!-- N22&#45;&gt;N23 -->
<g id="edge22" class="edge">
<title>N22&#45;&gt;N23</title>
<path fill="none" stroke="black" d="M1223.95,-323.97C1211.83,-306.84 1193,-280.22 1179.08,-260.56"/>
<polygon fill="black" stroke="black" points="1181.9,-258.48 1173.27,-252.34 1176.19,-262.53 1181.9,-258.48"/>
</g>
<!-- N26 -->
<g id="node31" class="node">
<title>N26</title>
<polygon fill="none" stroke="black" points="1314,-252 1260,-252 1260,-216 1314,-216 1314,-252"/>
<text text-anchor="middle" x="1287" y="-230.3" font-family="Times New Roman,serif" font-size="14.00"> = </text>
</g>
<!-- N22&#45;&gt;N26 -->
<g id="edge26" class="edge">
<title>N22&#45;&gt;N26</title>
<path fill="none" stroke="black" d="M1244.19,-323.97C1252.32,-307.07 1264.9,-280.94 1274.32,-261.36"/>
<polygon fill="black" stroke="black" points="1277.48,-262.87 1278.66,-252.34 1271.17,-259.83 1277.48,-262.87"/>
</g>
<!-- N30 -->
<g id="node33" class="node">
<title>N30</title>
<polygon fill="none" stroke="black" points="1509,-252 1455,-252 1455,-216 1509,-216 1509,-252"/>
<text text-anchor="middle" x="1482" y="-230.3" font-family="Times New Roman,serif" font-size="14.00">return</text>
</g>
<!-- N22&#45;&gt;N30 -->
<g id="edge28" class="edge">
<title>N22&#45;&gt;N30</title>
<path fill="none" stroke="black" d="M1263.27,-329.25C1307.71,-310.1 1395.81,-272.14 1445.57,-250.7"/>
<polygon fill="black" stroke="black" points="1447.19,-253.81 1454.99,-246.64 1444.42,-247.38 1447.19,-253.81"/>
</g>
<!-- N24 -->
<g id="node26" class="node">
<title>N24</title>
<polygon fill="none" stroke="black" points="1062,-144 1008,-144 1008,-108 1062,-108 1062,-144"/>
<text text-anchor="middle" x="1035" y="-122.3" font-family="Times New Roman,serif" font-size="14.00">int</text>
</g>
<!-- N23&#45;&gt;N24 -->
<g id="edge20" class="edge">
<title>N23&#45;&gt;N24</title>
<path fill="none" stroke="black" d="M1140.76,-215.97C1119.85,-198.38 1087.04,-170.78 1063.51,-150.99"/>
<polygon fill="black" stroke="black" points="1065.52,-148.1 1055.61,-144.34 1061.01,-153.46 1065.52,-148.1"/>
</g>
<!-- N25 -->
<g id="node27" class="node">
<title>N25</title>
<polygon fill="none" stroke="black" points="1188,-144 1134,-144 1134,-108 1188,-108 1188,-144"/>
<text text-anchor="middle" x="1161" y="-122.3" font-family="Times New Roman,serif" font-size="14.00">res</text>
</g>
<!-- N23&#45;&gt;N25 -->
<g id="edge21" class="edge">
<title>N23&#45;&gt;N25</title>
<path fill="none" stroke="black" d="M1161,-215.97C1161,-199.38 1161,-173.88 1161,-154.43"/>
<polygon fill="black" stroke="black" points="1164.5,-154.34 1161,-144.34 1157.5,-154.34 1164.5,-154.34"/>
</g>
<!-- N27 -->
<g id="node28" class="node">
<title>N27</title>
<polygon fill="none" stroke="black" points="1314,-144 1260,-144 1260,-108 1314,-108 1314,-144"/>
<text text-anchor="middle" x="1287" y="-122.3" font-family="Times New Roman,serif" font-size="14.00">res</text>
</g>
<!-- N29 -->
<g id="node29" class="node">
<title>N29</title>
<polygon fill="none" stroke="black" points="1446,-36 1392,-36 1392,0 1446,0 1446,-36"/>
<text text-anchor="middle" x="1419" y="-14.3" font-family="Times New Roman,serif" font-size="14.00">fct</text>
</g>
<!-- N28 -->
<g id="node30" class="node">
<title>N28</title>
<polygon fill="none" stroke="black" points="1452,-144 1386,-144 1386,-108 1452,-108 1452,-144"/>
<text text-anchor="middle" x="1419" y="-122.3" font-family="Times New Roman,serif" font-size="14.00">Function</text>
</g>
<!-- N28&#45;&gt;N29 -->
<g id="edge23" class="edge">
<title>N28&#45;&gt;N29</title>
<path fill="none" stroke="black" d="M1419,-107.97C1419,-91.38 1419,-65.88 1419,-46.43"/>
<polygon fill="black" stroke="black" points="1422.5,-46.34 1419,-36.34 1415.5,-46.34 1422.5,-46.34"/>
</g>
<!-- N26&#45;&gt;N27 -->
<g id="edge24" class="edge">
<title>N26&#45;&gt;N27</title>
<path fill="none" stroke="black" d="M1287,-215.97C1287,-199.38 1287,-173.88 1287,-154.43"/>
<polygon fill="black" stroke="black" points="1290.5,-154.34 1287,-144.34 1283.5,-154.34 1290.5,-154.34"/>
</g>
<!-- N26&#45;&gt;N28 -->
<g id="edge25" class="edge">
<title>N26&#45;&gt;N28</title>
<path fill="none" stroke="black" d="M1308.21,-215.97C1330.21,-198.3 1364.78,-170.54 1389.45,-150.73"/>
<polygon fill="black" stroke="black" points="1391.8,-153.33 1397.41,-144.34 1387.42,-147.87 1391.8,-153.33"/>
</g>
<!-- N31 -->
<g id="node32" class="node">
<title>N31</title>
<polygon fill="none" stroke="black" points="1578,-144 1524,-144 1524,-108 1578,-108 1578,-144"/>
<text text-anchor="middle" x="1551" y="-122.3" font-family="Times New Roman,serif" font-size="14.00">res</text>
</g>
<!-- N30&#45;&gt;N31 -->
<g id="edge27" class="edge">
<title>N30&#45;&gt;N31</title>
<path fill="none" stroke="black" d="M1493.09,-215.97C1504.19,-198.92 1521.41,-172.46 1534.19,-152.82"/>
<polygon fill="black" stroke="black" points="1537.19,-154.63 1539.71,-144.34 1531.32,-150.81 1537.19,-154.63"/>
</g>
</g>
</svg>
