<?xml version="1.0" encoding="UTF-8" standalone="no"?>
<!DOCTYPE svg PUBLIC "-//W3C//DTD SVG 1.1//EN"
 "http://www.w3.org/Graphics/SVG/1.1/DTD/svg11.dtd">
<!-- Generated by graphviz version 2.49.3 (20211023.0002)
 -->
<!-- Title: ast Pages: 1 -->
<svg width="472pt" height="476pt"
 viewBox="0.00 0.00 472.00 476.00" xmlns="http://www.w3.org/2000/svg" xmlns:xlink="http://www.w3.org/1999/xlink">
<g id="graph0" class="graph" transform="scale(1 1) rotate(0) translate(4 472)">
<title>ast</title>
<polygon fill="white" stroke="transparent" points="-4,4 -4,-472 468,-472 468,4 -4,4"/>
<!-- N0 -->
<g id="node1" class="node">
<title>N0</title>
<polygon fill="none" stroke="black" points="199.5,-468 134.5,-468 134.5,-432 199.5,-432 199.5,-468"/>
<text text-anchor="middle" x="167" y="-446.3" font-family="Times New Roman,serif" font-size="14.00">Program</text>
</g>
<!-- N1 -->
<g id="node9" class="node">
<title>N1</title>
<polygon fill="none" stroke="black" points="208.5,-360 125.5,-360 125.5,-324 208.5,-324 208.5,-360"/>
<text text-anchor="middle" x="167" y="-338.3" font-family="Times New Roman,serif" font-size="14.00">Decl_IntFct</text>
</g>
<!-- N0&#45;&gt;N1 -->
<g id="edge8" class="edge">
<title>N0&#45;&gt;N1</title>
<path fill="none" stroke="black" d="M167,-431.97C167,-415.38 167,-389.88 167,-370.43"/>
<polygon fill="black" stroke="black" points="170.5,-370.34 167,-360.34 163.5,-370.34 170.5,-370.34"/>
</g>
<!-- N2 -->
<g id="node2" class="node">
<title>N2</title>
<polygon fill="none" stroke="black" points="58,-252 4,-252 4,-216 58,-216 58,-252"/>
<text text-anchor="middle" x="31" y="-230.3" font-family="Times New Roman,serif" font-size="14.00">fct</text>
</g>
<!-- N4 -->
<g id="node3" class="node">
<title>N4</title>
<polygon fill="none" stroke="black" points="194,-144 140,-144 140,-108 194,-108 194,-144"/>
<text text-anchor="middle" x="167" y="-122.3" font-family="Times New Roman,serif" font-size="14.00">a</text>
</g>
<!-- N3 -->
<g id="node4" class="node">
<title>N3</title>
<polygon fill="none" stroke="black" points="204,-252 130,-252 130,-216 204,-216 204,-252"/>
<text text-anchor="middle" x="167" y="-230.3" font-family="Times New Roman,serif" font-size="14.00"> IntParam </text>
</g>
<!-- N3&#45;&gt;N4 -->
<g id="edge1" class="edge">
<title>N3&#45;&gt;N4</title>
<path fill="none" stroke="black" d="M167,-215.97C167,-199.38 167,-173.88 167,-154.43"/>
<polygon fill="black" stroke="black" points="170.5,-154.34 167,-144.34 163.5,-154.34 170.5,-154.34"/>
</g>
<!-- N5 -->
<g id="node5" class="node">
<title>N5</title>
<polygon fill="none" stroke="black" points="330,-252 276,-252 276,-216 330,-216 330,-252"/>
<text text-anchor="middle" x="303" y="-230.3" font-family="Times New Roman,serif" font-size="14.00">Bloc</text>
</g>
<!-- N6 -->
<g id="node7" class="node">
<title>N6</title>
<polygon fill="none" stroke="black" points="336,-144 270,-144 270,-108 336,-108 336,-144"/>
<text text-anchor="middle" x="303" y="-122.3" font-family="Times New Roman,serif" font-size="14.00">Function</text>
</g>
<!-- N5&#45;&gt;N6 -->
<g id="edge4" class="edge">
<title>N5&#45;&gt;N6</title>
<path fill="none" stroke="black" d="M303,-215.97C303,-199.38 303,-173.88 303,-154.43"/>
<polygon fill="black" stroke="black" points="306.5,-154.34 303,-144.34 299.5,-154.34 306.5,-154.34"/>
</g>
<!-- N7 -->
<g id="node6" class="node">
<title>N7</title>
<polygon fill="none" stroke="black" points="338,-36 0,-36 0,0 338,0 338,-36"/>
<text text-anchor="middle" x="169" y="-14.3" font-family="Times New Roman,serif" font-size="14.00">[275 251 240 232 224 216 208 200 198 150 141 99 53 44]</text>
</g>
<!-- N6&#45;&gt;N7 -->
<g id="edge2" class="edge">
<title>N6&#45;&gt;N7</title>
<path fill="none" stroke="black" d="M281.47,-107.97C259.14,-90.3 224.04,-62.54 199,-42.73"/>
<polygon fill="black" stroke="black" points="200.94,-39.8 190.92,-36.34 196.59,-45.29 200.94,-39.8"/>
</g>
<!-- N8 -->
<g id="node8" class="node">
<title>N8</title>
<polygon fill="none" stroke="black" points="464,-36 410,-36 410,0 464,0 464,-36"/>
<text text-anchor="middle" x="437" y="-14.3" font-family="Times New Roman,serif" font-size="14.00">a</text>
</g>
<!-- N6&#45;&gt;N8 -->
<g id="edge3" class="edge">
<title>N6&#45;&gt;N8</title>
<path fill="none" stroke="black" d="M324.53,-107.97C346.86,-90.3 381.96,-62.54 407,-42.73"/>
<polygon fill="black" stroke="black" points="409.41,-45.29 415.08,-36.34 405.06,-39.8 409.41,-45.29"/>
</g>
<!-- N1&#45;&gt;N2 -->
<g id="edge5" class="edge">
<title>N1&#45;&gt;N2</title>
<path fill="none" stroke="black" d="M145.15,-323.97C122.48,-306.3 86.86,-278.54 61.44,-258.73"/>
<polygon fill="black" stroke="black" points="63.29,-255.73 53.25,-252.34 58.98,-261.25 63.29,-255.73"/>
</g>
<!-- N1&#45;&gt;N3 -->
<g id="edge6" class="edge">
<title>N1&#45;&gt;N3</title>
<path fill="none" stroke="black" d="M167,-323.97C167,-307.38 167,-281.88 167,-262.43"/>
<polygon fill="black" stroke="black" points="170.5,-262.34 167,-252.34 163.5,-262.34 170.5,-262.34"/>
</g>
<!-- N1&#45;&gt;N5 -->
<g id="edge7" class="edge">
<title>N1&#45;&gt;N5</title>
<path fill="none" stroke="black" d="M188.85,-323.97C211.52,-306.3 247.14,-278.54 272.56,-258.73"/>
<polygon fill="black" stroke="black" points="275.02,-261.25 280.75,-252.34 270.71,-255.73 275.02,-261.25"/>
</g>
</g>
</svg>
