<?xml version="1.0" encoding="UTF-8" standalone="no"?>
<!DOCTYPE svg PUBLIC "-//W3C//DTD SVG 1.1//EN"
 "http://www.w3.org/Graphics/SVG/1.1/DTD/svg11.dtd">
<!-- Generated by graphviz version 2.43.0 (0)
 -->
<!-- Title: ast Pages: 1 -->
<svg width="1942pt" height="584pt"
 viewBox="0.00 0.00 1941.50 584.00" xmlns="http://www.w3.org/2000/svg" xmlns:xlink="http://www.w3.org/1999/xlink">
<g id="graph0" class="graph" transform="scale(1 1) rotate(0) translate(4 580)">
<title>ast</title>
<polygon fill="white" stroke="transparent" points="-4,4 -4,-580 1937.5,-580 1937.5,4 -4,4"/>
<!-- N0 -->
<g id="node1" class="node">
<title>N0</title>
<polygon fill="none" stroke="black" points="1022,-576 943,-576 943,-540 1022,-540 1022,-576"/>
<text text-anchor="middle" x="982.5" y="-554.3" font-family="Times,serif" font-size="14.00">Program</text>
</g>
<!-- N1 -->
<g id="node14" class="node">
<title>N1</title>
<polygon fill="none" stroke="black" points="382.5,-468 284.5,-468 284.5,-432 382.5,-432 382.5,-468"/>
<text text-anchor="middle" x="333.5" y="-446.3" font-family="Times,serif" font-size="14.00">Decl_IntFct</text>
</g>
<!-- N0&#45;&gt;N1 -->
<g id="edge13" class="edge">
<title>N0&#45;&gt;N1</title>
<path fill="none" stroke="black" d="M942.88,-550.53C832.88,-532.56 523.28,-482 392.74,-460.67"/>
<polygon fill="black" stroke="black" points="392.96,-457.17 382.53,-459.01 391.84,-464.07 392.96,-457.17"/>
</g>
<!-- N14 -->
<g id="node30" class="node">
<title>N14</title>
<polygon fill="none" stroke="black" points="1031.5,-468 933.5,-468 933.5,-432 1031.5,-432 1031.5,-468"/>
<text text-anchor="middle" x="982.5" y="-446.3" font-family="Times,serif" font-size="14.00">Decl_IntFct</text>
</g>
<!-- N0&#45;&gt;N14 -->
<g id="edge31" class="edge">
<title>N0&#45;&gt;N14</title>
<path fill="none" stroke="black" d="M982.5,-539.97C982.5,-523.38 982.5,-497.88 982.5,-478.43"/>
<polygon fill="black" stroke="black" points="986,-478.34 982.5,-468.34 979,-478.34 986,-478.34"/>
</g>
<!-- N30 -->
<g id="node42" class="node">
<title>N30</title>
<polygon fill="none" stroke="black" points="1422.5,-468 1324.5,-468 1324.5,-432 1422.5,-432 1422.5,-468"/>
<text text-anchor="middle" x="1373.5" y="-446.3" font-family="Times,serif" font-size="14.00">Decl_IntFct</text>
</g>
<!-- N0&#45;&gt;N30 -->
<g id="edge43" class="edge">
<title>N0&#45;&gt;N30</title>
<path fill="none" stroke="black" d="M1022.14,-546.25C1091.12,-527.55 1233.57,-488.94 1314.3,-467.05"/>
<polygon fill="black" stroke="black" points="1315.57,-470.33 1324.31,-464.34 1313.74,-463.57 1315.57,-470.33"/>
</g>
<!-- N2 -->
<g id="node2" class="node">
<title>N2</title>
<polygon fill="none" stroke="black" points="137,-360 0,-360 0,-324 137,-324 137,-360"/>
<text text-anchor="middle" x="68.5" y="-338.3" font-family="Times,serif" font-size="14.00">simple_condition</text>
</g>
<!-- N3 -->
<g id="node3" class="node">
<title>N3</title>
<polygon fill="none" stroke="black" points="308,-360 209,-360 209,-324 308,-324 308,-360"/>
<text text-anchor="middle" x="258.5" y="-338.3" font-family="Times,serif" font-size="14.00">Parameters</text>
</g>
<!-- N4 -->
<g id="node4" class="node">
<title>N4</title>
<polygon fill="none" stroke="black" points="434.5,-360 380.5,-360 380.5,-324 434.5,-324 434.5,-360"/>
<text text-anchor="middle" x="407.5" y="-338.3" font-family="Times,serif" font-size="14.00">Bloc</text>
</g>
<!-- N5 -->
<g id="node5" class="node">
<title>N5</title>
<polygon fill="none" stroke="black" points="186,-252 111,-252 111,-216 186,-216 186,-252"/>
<text text-anchor="middle" x="148.5" y="-230.3" font-family="Times,serif" font-size="14.00">Decl_Int</text>
</g>
<!-- N4&#45;&gt;N5 -->
<g id="edge2" class="edge">
<title>N4&#45;&gt;N5</title>
<path fill="none" stroke="black" d="M380.27,-329.86C336.41,-311.91 249.57,-276.36 195.53,-254.25"/>
<polygon fill="black" stroke="black" points="196.75,-250.97 186.17,-250.42 194.1,-257.44 196.75,-250.97"/>
</g>
<!-- N7 -->
<g id="node9" class="node">
<title>N7</title>
<polygon fill="none" stroke="black" points="369.5,-252 315.5,-252 315.5,-216 369.5,-216 369.5,-252"/>
<text text-anchor="middle" x="342.5" y="-230.3" font-family="Times,serif" font-size="14.00"> = </text>
</g>
<!-- N4&#45;&gt;N7 -->
<g id="edge5" class="edge">
<title>N4&#45;&gt;N7</title>
<path fill="none" stroke="black" d="M397.06,-323.97C386.65,-306.99 370.52,-280.7 358.5,-261.09"/>
<polygon fill="black" stroke="black" points="361.34,-259.04 353.13,-252.34 355.38,-262.7 361.34,-259.04"/>
</g>
<!-- N10 -->
<g id="node13" class="node">
<title>N10</title>
<polygon fill="none" stroke="black" points="503.5,-252 441.5,-252 441.5,-216 503.5,-216 503.5,-252"/>
<text text-anchor="middle" x="472.5" y="-230.3" font-family="Times,serif" font-size="14.00">IfThen</text>
</g>
<!-- N4&#45;&gt;N10 -->
<g id="edge9" class="edge">
<title>N4&#45;&gt;N10</title>
<path fill="none" stroke="black" d="M417.94,-323.97C428.35,-306.99 444.48,-280.7 456.5,-261.09"/>
<polygon fill="black" stroke="black" points="459.62,-262.7 461.87,-252.34 453.66,-259.04 459.62,-262.7"/>
</g>
<!-- N6 -->
<g id="node6" class="node">
<title>N6</title>
<polygon fill="none" stroke="black" points="119.5,-144 65.5,-144 65.5,-108 119.5,-108 119.5,-144"/>
<text text-anchor="middle" x="92.5" y="-122.3" font-family="Times,serif" font-size="14.00">bool</text>
</g>
<!-- N5&#45;&gt;N6 -->
<g id="edge1" class="edge">
<title>N5&#45;&gt;N6</title>
<path fill="none" stroke="black" d="M139.5,-215.97C130.58,-199.07 116.77,-172.94 106.42,-153.36"/>
<polygon fill="black" stroke="black" points="109.43,-151.55 101.66,-144.34 103.24,-154.82 109.43,-151.55"/>
</g>
<!-- N8 -->
<g id="node7" class="node">
<title>N8</title>
<polygon fill="none" stroke="black" points="245.5,-144 191.5,-144 191.5,-108 245.5,-108 245.5,-144"/>
<text text-anchor="middle" x="218.5" y="-122.3" font-family="Times,serif" font-size="14.00">bool</text>
</g>
<!-- N9 -->
<g id="node8" class="node">
<title>N9</title>
<polygon fill="none" stroke="black" points="371.5,-144 317.5,-144 317.5,-108 371.5,-108 371.5,-144"/>
<text text-anchor="middle" x="344.5" y="-122.3" font-family="Times,serif" font-size="14.00">0</text>
</g>
<!-- N7&#45;&gt;N8 -->
<g id="edge3" class="edge">
<title>N7&#45;&gt;N8</title>
<path fill="none" stroke="black" d="M322.58,-215.97C302,-198.38 269.72,-170.78 246.56,-150.99"/>
<polygon fill="black" stroke="black" points="248.66,-148.18 238.79,-144.34 244.11,-153.5 248.66,-148.18"/>
</g>
<!-- N7&#45;&gt;N9 -->
<g id="edge4" class="edge">
<title>N7&#45;&gt;N9</title>
<path fill="none" stroke="black" d="M342.82,-215.97C343.13,-199.38 343.62,-173.88 343.98,-154.43"/>
<polygon fill="black" stroke="black" points="347.48,-154.4 344.17,-144.34 340.48,-154.27 347.48,-154.4"/>
</g>
<!-- N11 -->
<g id="node10" class="node">
<title>N11</title>
<polygon fill="none" stroke="black" points="497.5,-144 443.5,-144 443.5,-108 497.5,-108 497.5,-144"/>
<text text-anchor="middle" x="470.5" y="-122.3" font-family="Times,serif" font-size="14.00">bool</text>
</g>
<!-- N13 -->
<g id="node11" class="node">
<title>N13</title>
<polygon fill="none" stroke="black" points="627.5,-36 573.5,-36 573.5,0 627.5,0 627.5,-36"/>
<text text-anchor="middle" x="600.5" y="-14.3" font-family="Times,serif" font-size="14.00">1</text>
</g>
<!-- N12 -->
<g id="node12" class="node">
<title>N12</title>
<polygon fill="none" stroke="black" points="631.5,-144 569.5,-144 569.5,-108 631.5,-108 631.5,-144"/>
<text text-anchor="middle" x="600.5" y="-122.3" font-family="Times,serif" font-size="14.00">return</text>
</g>
<!-- N12&#45;&gt;N13 -->
<g id="edge6" class="edge">
<title>N12&#45;&gt;N13</title>
<path fill="none" stroke="black" d="M600.5,-107.97C600.5,-91.38 600.5,-65.88 600.5,-46.43"/>
<polygon fill="black" stroke="black" points="604,-46.34 600.5,-36.34 597,-46.34 604,-46.34"/>
</g>
<!-- N10&#45;&gt;N11 -->
<g id="edge7" class="edge">
<title>N10&#45;&gt;N11</title>
<path fill="none" stroke="black" d="M472.18,-215.97C471.87,-199.38 471.38,-173.88 471.02,-154.43"/>
<polygon fill="black" stroke="black" points="474.52,-154.27 470.83,-144.34 467.52,-154.4 474.52,-154.27"/>
</g>
<!-- N10&#45;&gt;N12 -->
<g id="edge8" class="edge">
<title>N10&#45;&gt;N12</title>
<path fill="none" stroke="black" d="M493.07,-215.97C514.4,-198.3 547.92,-170.54 571.85,-150.73"/>
<polygon fill="black" stroke="black" points="574.09,-153.41 579.56,-144.34 569.63,-148.02 574.09,-153.41"/>
</g>
<!-- N1&#45;&gt;N2 -->
<g id="edge10" class="edge">
<title>N1&#45;&gt;N2</title>
<path fill="none" stroke="black" d="M290.92,-431.97C244.6,-413.44 170.52,-383.81 120.72,-363.89"/>
<polygon fill="black" stroke="black" points="122,-360.63 111.41,-360.16 119.4,-367.13 122,-360.63"/>
</g>
<!-- N1&#45;&gt;N3 -->
<g id="edge11" class="edge">
<title>N1&#45;&gt;N3</title>
<path fill="none" stroke="black" d="M321.45,-431.97C309.33,-414.84 290.5,-388.22 276.58,-368.56"/>
<polygon fill="black" stroke="black" points="279.4,-366.48 270.77,-360.34 273.69,-370.53 279.4,-366.48"/>
</g>
<!-- N1&#45;&gt;N4 -->
<g id="edge12" class="edge">
<title>N1&#45;&gt;N4</title>
<path fill="none" stroke="black" d="M345.39,-431.97C357.35,-414.84 375.93,-388.22 389.66,-368.56"/>
<polygon fill="black" stroke="black" points="392.54,-370.54 395.39,-360.34 386.8,-366.54 392.54,-370.54"/>
</g>
<!-- N15 -->
<g id="node15" class="node">
<title>N15</title>
<polygon fill="none" stroke="black" points="860.5,-360 806.5,-360 806.5,-324 860.5,-324 860.5,-360"/>
<text text-anchor="middle" x="833.5" y="-338.3" font-family="Times,serif" font-size="14.00">max</text>
</g>
<!-- N16 -->
<g id="node16" class="node">
<title>N16</title>
<polygon fill="none" stroke="black" points="1032,-360 933,-360 933,-324 1032,-324 1032,-360"/>
<text text-anchor="middle" x="982.5" y="-338.3" font-family="Times,serif" font-size="14.00">Parameters</text>
</g>
<!-- N17 -->
<g id="node18" class="node">
<title>N17</title>
<polygon fill="none" stroke="black" points="879.5,-252 817.5,-252 817.5,-216 879.5,-216 879.5,-252"/>
<text text-anchor="middle" x="848.5" y="-230.3" font-family="Times,serif" font-size="14.00">Param</text>
</g>
<!-- N16&#45;&gt;N17 -->
<g id="edge16" class="edge">
<title>N16&#45;&gt;N17</title>
<path fill="none" stroke="black" d="M960.97,-323.97C938.64,-306.3 903.54,-278.54 878.5,-258.73"/>
<polygon fill="black" stroke="black" points="880.44,-255.8 870.42,-252.34 876.09,-261.29 880.44,-255.8"/>
</g>
<!-- N19 -->
<g id="node20" class="node">
<title>N19</title>
<polygon fill="none" stroke="black" points="1013.5,-252 951.5,-252 951.5,-216 1013.5,-216 1013.5,-252"/>
<text text-anchor="middle" x="982.5" y="-230.3" font-family="Times,serif" font-size="14.00">Param</text>
</g>
<!-- N16&#45;&gt;N19 -->
<g id="edge19" class="edge">
<title>N16&#45;&gt;N19</title>
<path fill="none" stroke="black" d="M982.5,-323.97C982.5,-307.38 982.5,-281.88 982.5,-262.43"/>
<polygon fill="black" stroke="black" points="986,-262.34 982.5,-252.34 979,-262.34 986,-262.34"/>
</g>
<!-- N18 -->
<g id="node17" class="node">
<title>N18</title>
<polygon fill="none" stroke="black" points="757.5,-144 703.5,-144 703.5,-108 757.5,-108 757.5,-144"/>
<text text-anchor="middle" x="730.5" y="-122.3" font-family="Times,serif" font-size="14.00">a</text>
</g>
<!-- N17&#45;&gt;N18 -->
<g id="edge15" class="edge">
<title>N17&#45;&gt;N18</title>
<path fill="none" stroke="black" d="M829.54,-215.97C810.05,-198.46 779.51,-171.02 757.49,-151.25"/>
<polygon fill="black" stroke="black" points="759.58,-148.42 749.8,-144.34 754.9,-153.63 759.58,-148.42"/>
</g>
<!-- int -->
<g id="node43" class="node">
<title>int</title>
<ellipse fill="none" stroke="black" cx="856.5" cy="-126" rx="27" ry="18"/>
<text text-anchor="middle" x="856.5" y="-122.3" font-family="Times,serif" font-size="14.00">int</text>
</g>
<!-- N17&#45;&gt;int -->
<g id="edge14" class="edge">
<title>N17&#45;&gt;int</title>
<path fill="none" stroke="black" d="M849.79,-215.97C851.04,-199.28 852.98,-173.58 854.46,-154.08"/>
<polygon fill="black" stroke="black" points="857.96,-154.22 855.22,-143.99 850.98,-153.7 857.96,-154.22"/>
</g>
<!-- N20 -->
<g id="node19" class="node">
<title>N20</title>
<polygon fill="none" stroke="black" points="1009.5,-144 955.5,-144 955.5,-108 1009.5,-108 1009.5,-144"/>
<text text-anchor="middle" x="982.5" y="-122.3" font-family="Times,serif" font-size="14.00">a</text>
</g>
<!-- N19&#45;&gt;N20 -->
<g id="edge18" class="edge">
<title>N19&#45;&gt;N20</title>
<path fill="none" stroke="black" d="M982.5,-215.97C982.5,-199.38 982.5,-173.88 982.5,-154.43"/>
<polygon fill="black" stroke="black" points="986,-154.34 982.5,-144.34 979,-154.34 986,-154.34"/>
</g>
<!-- N19&#45;&gt;int -->
<g id="edge17" class="edge">
<title>N19&#45;&gt;int</title>
<path fill="none" stroke="black" d="M962.26,-215.97C939.98,-197.23 904.2,-167.12 880.52,-147.2"/>
<polygon fill="black" stroke="black" points="882.59,-144.38 872.69,-140.62 878.09,-149.73 882.59,-144.38"/>
</g>
<!-- N21 -->
<g id="node21" class="node">
<title>N21</title>
<polygon fill="none" stroke="black" points="1158.5,-360 1104.5,-360 1104.5,-324 1158.5,-324 1158.5,-360"/>
<text text-anchor="middle" x="1131.5" y="-338.3" font-family="Times,serif" font-size="14.00">Bloc</text>
</g>
<!-- N22 -->
<g id="node29" class="node">
<title>N22</title>
<polygon fill="none" stroke="black" points="1232,-252 1139,-252 1139,-216 1232,-216 1232,-252"/>
<text text-anchor="middle" x="1185.5" y="-230.3" font-family="Times,serif" font-size="14.00">IfThenElse</text>
</g>
<!-- N21&#45;&gt;N22 -->
<g id="edge27" class="edge">
<title>N21&#45;&gt;N22</title>
<path fill="none" stroke="black" d="M1140.18,-323.97C1148.78,-307.07 1162.1,-280.94 1172.07,-261.36"/>
<polygon fill="black" stroke="black" points="1175.25,-262.84 1176.67,-252.34 1169.01,-259.66 1175.25,-262.84"/>
</g>
<!-- N24 -->
<g id="node22" class="node">
<title>N24</title>
<polygon fill="none" stroke="black" points="1011.5,-36 957.5,-36 957.5,0 1011.5,0 1011.5,-36"/>
<text text-anchor="middle" x="984.5" y="-14.3" font-family="Times,serif" font-size="14.00">a</text>
</g>
<!-- N25 -->
<g id="node23" class="node">
<title>N25</title>
<polygon fill="none" stroke="black" points="1137.5,-36 1083.5,-36 1083.5,0 1137.5,0 1137.5,-36"/>
<text text-anchor="middle" x="1110.5" y="-14.3" font-family="Times,serif" font-size="14.00">b</text>
</g>
<!-- N23 -->
<g id="node24" class="node">
<title>N23</title>
<polygon fill="none" stroke="black" points="1135.5,-144 1081.5,-144 1081.5,-108 1135.5,-108 1135.5,-144"/>
<text text-anchor="middle" x="1108.5" y="-122.3" font-family="Times,serif" font-size="14.00">&lt;</text>
</g>
<!-- N23&#45;&gt;N24 -->
<g id="edge20" class="edge">
<title>N23&#45;&gt;N24</title>
<path fill="none" stroke="black" d="M1088.58,-107.97C1068,-90.38 1035.72,-62.78 1012.56,-42.99"/>
<polygon fill="black" stroke="black" points="1014.66,-40.18 1004.79,-36.34 1010.11,-45.5 1014.66,-40.18"/>
</g>
<!-- N23&#45;&gt;N25 -->
<g id="edge21" class="edge">
<title>N23&#45;&gt;N25</title>
<path fill="none" stroke="black" d="M1108.82,-107.97C1109.13,-91.38 1109.62,-65.88 1109.98,-46.43"/>
<polygon fill="black" stroke="black" points="1113.48,-46.4 1110.17,-36.34 1106.48,-46.27 1113.48,-46.4"/>
</g>
<!-- N27 -->
<g id="node25" class="node">
<title>N27</title>
<polygon fill="none" stroke="black" points="1265.5,-36 1211.5,-36 1211.5,0 1265.5,0 1265.5,-36"/>
<text text-anchor="middle" x="1238.5" y="-14.3" font-family="Times,serif" font-size="14.00">b</text>
</g>
<!-- N26 -->
<g id="node26" class="node">
<title>N26</title>
<polygon fill="none" stroke="black" points="1269.5,-144 1207.5,-144 1207.5,-108 1269.5,-108 1269.5,-144"/>
<text text-anchor="middle" x="1238.5" y="-122.3" font-family="Times,serif" font-size="14.00">return</text>
</g>
<!-- N26&#45;&gt;N27 -->
<g id="edge22" class="edge">
<title>N26&#45;&gt;N27</title>
<path fill="none" stroke="black" d="M1238.5,-107.97C1238.5,-91.38 1238.5,-65.88 1238.5,-46.43"/>
<polygon fill="black" stroke="black" points="1242,-46.34 1238.5,-36.34 1235,-46.34 1242,-46.34"/>
</g>
<!-- N29 -->
<g id="node27" class="node">
<title>N29</title>
<polygon fill="none" stroke="black" points="1399.5,-36 1345.5,-36 1345.5,0 1399.5,0 1399.5,-36"/>
<text text-anchor="middle" x="1372.5" y="-14.3" font-family="Times,serif" font-size="14.00">a</text>
</g>
<!-- N28 -->
<g id="node28" class="node">
<title>N28</title>
<polygon fill="none" stroke="black" points="1403.5,-144 1341.5,-144 1341.5,-108 1403.5,-108 1403.5,-144"/>
<text text-anchor="middle" x="1372.5" y="-122.3" font-family="Times,serif" font-size="14.00">return</text>
</g>
<!-- N28&#45;&gt;N29 -->
<g id="edge23" class="edge">
<title>N28&#45;&gt;N29</title>
<path fill="none" stroke="black" d="M1372.5,-107.97C1372.5,-91.38 1372.5,-65.88 1372.5,-46.43"/>
<polygon fill="black" stroke="black" points="1376,-46.34 1372.5,-36.34 1369,-46.34 1376,-46.34"/>
</g>
<!-- N22&#45;&gt;N23 -->
<g id="edge24" class="edge">
<title>N22&#45;&gt;N23</title>
<path fill="none" stroke="black" d="M1173.13,-215.97C1160.69,-198.84 1141.35,-172.22 1127.07,-152.56"/>
<polygon fill="black" stroke="black" points="1129.81,-150.37 1121.1,-144.34 1124.14,-154.49 1129.81,-150.37"/>
</g>
<!-- N22&#45;&gt;N26 -->
<g id="edge25" class="edge">
<title>N22&#45;&gt;N26</title>
<path fill="none" stroke="black" d="M1194.02,-215.97C1202.46,-199.07 1215.53,-172.94 1225.32,-153.36"/>
<polygon fill="black" stroke="black" points="1228.49,-154.85 1229.83,-144.34 1222.23,-151.72 1228.49,-154.85"/>
</g>
<!-- N22&#45;&gt;N28 -->
<g id="edge26" class="edge">
<title>N22&#45;&gt;N28</title>
<path fill="none" stroke="black" d="M1215.54,-215.97C1247.48,-197.86 1298.13,-169.16 1333.21,-149.27"/>
<polygon fill="black" stroke="black" points="1335.25,-152.14 1342.22,-144.16 1331.79,-146.05 1335.25,-152.14"/>
</g>
<!-- N14&#45;&gt;N15 -->
<g id="edge28" class="edge">
<title>N14&#45;&gt;N15</title>
<path fill="none" stroke="black" d="M958.56,-431.97C933.51,-414.15 894.02,-386.06 866.13,-366.21"/>
<polygon fill="black" stroke="black" points="868.05,-363.29 857.88,-360.34 863.99,-368.99 868.05,-363.29"/>
</g>
<!-- N14&#45;&gt;N16 -->
<g id="edge29" class="edge">
<title>N14&#45;&gt;N16</title>
<path fill="none" stroke="black" d="M982.5,-431.97C982.5,-415.38 982.5,-389.88 982.5,-370.43"/>
<polygon fill="black" stroke="black" points="986,-370.34 982.5,-360.34 979,-370.34 986,-370.34"/>
</g>
<!-- N14&#45;&gt;N21 -->
<g id="edge30" class="edge">
<title>N14&#45;&gt;N21</title>
<path fill="none" stroke="black" d="M1006.44,-431.97C1031.49,-414.15 1070.98,-386.06 1098.87,-366.21"/>
<polygon fill="black" stroke="black" points="1101.01,-368.99 1107.12,-360.34 1096.95,-363.29 1101.01,-368.99"/>
</g>
<!-- N31 -->
<g id="node31" class="node">
<title>N31</title>
<polygon fill="none" stroke="black" points="1326.5,-360 1272.5,-360 1272.5,-324 1326.5,-324 1326.5,-360"/>
<text text-anchor="middle" x="1299.5" y="-338.3" font-family="Times,serif" font-size="14.00">main</text>
</g>
<!-- N32 -->
<g id="node32" class="node">
<title>N32</title>
<polygon fill="none" stroke="black" points="1498,-360 1399,-360 1399,-324 1498,-324 1498,-360"/>
<text text-anchor="middle" x="1448.5" y="-338.3" font-family="Times,serif" font-size="14.00">Parameters</text>
</g>
<!-- N33 -->
<g id="node33" class="node">
<title>N33</title>
<polygon fill="none" stroke="black" points="1645.5,-360 1591.5,-360 1591.5,-324 1645.5,-324 1645.5,-360"/>
<text text-anchor="middle" x="1618.5" y="-338.3" font-family="Times,serif" font-size="14.00">Bloc</text>
</g>
<!-- N34 -->
<g id="node34" class="node">
<title>N34</title>
<polygon fill="none" stroke="black" points="1540,-252 1465,-252 1465,-216 1540,-216 1540,-252"/>
<text text-anchor="middle" x="1502.5" y="-230.3" font-family="Times,serif" font-size="14.00">Decl_Int</text>
</g>
<!-- N33&#45;&gt;N34 -->
<g id="edge33" class="edge">
<title>N33&#45;&gt;N34</title>
<path fill="none" stroke="black" d="M1599.86,-323.97C1580.7,-306.46 1550.68,-279.02 1529.03,-259.25"/>
<polygon fill="black" stroke="black" points="1531.22,-256.5 1521.48,-252.34 1526.5,-261.67 1531.22,-256.5"/>
</g>
<!-- N36 -->
<g id="node39" class="node">
<title>N36</title>
<polygon fill="none" stroke="black" points="1666.5,-252 1612.5,-252 1612.5,-216 1666.5,-216 1666.5,-252"/>
<text text-anchor="middle" x="1639.5" y="-230.3" font-family="Times,serif" font-size="14.00"> = </text>
</g>
<!-- N33&#45;&gt;N36 -->
<g id="edge37" class="edge">
<title>N33&#45;&gt;N36</title>
<path fill="none" stroke="black" d="M1621.87,-323.97C1625.18,-307.3 1630.26,-281.65 1634.12,-262.16"/>
<polygon fill="black" stroke="black" points="1637.55,-262.83 1636.06,-252.34 1630.69,-261.47 1637.55,-262.83"/>
</g>
<!-- N40 -->
<g id="node41" class="node">
<title>N40</title>
<polygon fill="none" stroke="black" points="1868.5,-252 1806.5,-252 1806.5,-216 1868.5,-216 1868.5,-252"/>
<text text-anchor="middle" x="1837.5" y="-230.3" font-family="Times,serif" font-size="14.00">return</text>
</g>
<!-- N33&#45;&gt;N40 -->
<g id="edge39" class="edge">
<title>N33&#45;&gt;N40</title>
<path fill="none" stroke="black" d="M1645.79,-327.79C1683.82,-309.38 1753.03,-275.89 1797.06,-254.57"/>
<polygon fill="black" stroke="black" points="1798.85,-257.6 1806.32,-250.09 1795.8,-251.3 1798.85,-257.6"/>
</g>
<!-- N35 -->
<g id="node35" class="node">
<title>N35</title>
<polygon fill="none" stroke="black" points="1529.5,-144 1475.5,-144 1475.5,-108 1529.5,-108 1529.5,-144"/>
<text text-anchor="middle" x="1502.5" y="-122.3" font-family="Times,serif" font-size="14.00">bool</text>
</g>
<!-- N34&#45;&gt;N35 -->
<g id="edge32" class="edge">
<title>N34&#45;&gt;N35</title>
<path fill="none" stroke="black" d="M1502.5,-215.97C1502.5,-199.38 1502.5,-173.88 1502.5,-154.43"/>
<polygon fill="black" stroke="black" points="1506,-154.34 1502.5,-144.34 1499,-154.34 1506,-154.34"/>
</g>
<!-- N37 -->
<g id="node36" class="node">
<title>N37</title>
<polygon fill="none" stroke="black" points="1655.5,-144 1601.5,-144 1601.5,-108 1655.5,-108 1655.5,-144"/>
<text text-anchor="middle" x="1628.5" y="-122.3" font-family="Times,serif" font-size="14.00">bool</text>
</g>
<!-- N39 -->
<g id="node37" class="node">
<title>N39</title>
<polygon fill="none" stroke="black" points="1836,-36 1699,-36 1699,0 1836,0 1836,-36"/>
<text text-anchor="middle" x="1767.5" y="-14.3" font-family="Times,serif" font-size="14.00">simple_condition</text>
</g>
<!-- N38 -->
<g id="node38" class="node">
<title>N38</title>
<polygon fill="none" stroke="black" points="1807.5,-144 1727.5,-144 1727.5,-108 1807.5,-108 1807.5,-144"/>
<text text-anchor="middle" x="1767.5" y="-122.3" font-family="Times,serif" font-size="14.00">Function</text>
</g>
<!-- N38&#45;&gt;N39 -->
<g id="edge34" class="edge">
<title>N38&#45;&gt;N39</title>
<path fill="none" stroke="black" d="M1767.5,-107.97C1767.5,-91.38 1767.5,-65.88 1767.5,-46.43"/>
<polygon fill="black" stroke="black" points="1771,-46.34 1767.5,-36.34 1764,-46.34 1771,-46.34"/>
</g>
<!-- N36&#45;&gt;N37 -->
<g id="edge35" class="edge">
<title>N36&#45;&gt;N37</title>
<path fill="none" stroke="black" d="M1637.73,-215.97C1636.01,-199.38 1633.37,-173.88 1631.35,-154.43"/>
<polygon fill="black" stroke="black" points="1634.81,-153.93 1630.3,-144.34 1627.85,-154.65 1634.81,-153.93"/>
</g>
<!-- N36&#45;&gt;N38 -->
<g id="edge36" class="edge">
<title>N36&#45;&gt;N38</title>
<path fill="none" stroke="black" d="M1660.07,-215.97C1681.4,-198.3 1714.92,-170.54 1738.85,-150.73"/>
<polygon fill="black" stroke="black" points="1741.09,-153.41 1746.56,-144.34 1736.63,-148.02 1741.09,-153.41"/>
</g>
<!-- N41 -->
<g id="node40" class="node">
<title>N41</title>
<polygon fill="none" stroke="black" points="1933.5,-144 1879.5,-144 1879.5,-108 1933.5,-108 1933.5,-144"/>
<text text-anchor="middle" x="1906.5" y="-122.3" font-family="Times,serif" font-size="14.00">bool</text>
</g>
<!-- N40&#45;&gt;N41 -->
<g id="edge38" class="edge">
<title>N40&#45;&gt;N41</title>
<path fill="none" stroke="black" d="M1848.59,-215.97C1859.69,-198.92 1876.91,-172.46 1889.69,-152.82"/>
<polygon fill="black" stroke="black" points="1892.69,-154.63 1895.21,-144.34 1886.82,-150.81 1892.69,-154.63"/>
</g>
<!-- N30&#45;&gt;N31 -->
<g id="edge40" class="edge">
<title>N30&#45;&gt;N31</title>
<path fill="none" stroke="black" d="M1361.61,-431.97C1349.65,-414.84 1331.07,-388.22 1317.34,-368.56"/>
<polygon fill="black" stroke="black" points="1320.2,-366.54 1311.61,-360.34 1314.46,-370.54 1320.2,-366.54"/>
</g>
<!-- N30&#45;&gt;N32 -->
<g id="edge41" class="edge">
<title>N30&#45;&gt;N32</title>
<path fill="none" stroke="black" d="M1385.55,-431.97C1397.67,-414.84 1416.5,-388.22 1430.42,-368.56"/>
<polygon fill="black" stroke="black" points="1433.31,-370.53 1436.23,-360.34 1427.6,-366.48 1433.31,-370.53"/>
</g>
<!-- N30&#45;&gt;N33 -->
<g id="edge42" class="edge">
<title>N30&#45;&gt;N33</title>
<path fill="none" stroke="black" d="M1412.86,-431.97C1459.49,-411.8 1536.54,-378.46 1581.92,-358.83"/>
<polygon fill="black" stroke="black" points="1583.58,-361.92 1591.37,-354.74 1580.8,-355.5 1583.58,-361.92"/>
</g>
</g>
</svg>
